<svg xmlns="http://www.w3.org/2000/svg" viewBox="0 0 24 24"><path d="M4,4.1v11.8C4,15.955,4.045,16,4.1,16h9.87c0.02,0,0.039,0.006,0.055,0.017l5.819,3.88C19.911,19.941,20,19.893,20,19.813v-4.385V4.1C20,4.045,19.955,4,19.9,4H4.1C4.045,4,4,4.045,4,4.1z M15.9,11h-2.8c-0.055,0-0.1,0.045-0.1,0.1v2.8c0,0.055-0.045,0.1-0.1,0.1h-1.8c-0.055,0-0.1-0.045-0.1-0.1v-2.8c0-0.055-0.045-0.1-0.1-0.1H8.1C8.045,11,8,10.955,8,10.9V9.1C8,9.045,8.045,9,8.1,9h2.8C10.955,9,11,8.955,11,8.9V6.1C11,6.045,11.045,6,11.1,6h1.8C12.955,6,13,6.045,13,6.1v2.8C13,8.955,13.045,9,13.1,9h2.8C15.955,9,16,9.045,16,9.1v1.8C16,10.955,15.955,11,15.9,11z"/></svg>