<svg xmlns="http://www.w3.org/2000/svg" viewBox="0 0 24 24"><path d="M16.9,5H3.1C3.045,5,3,5.045,3,5.1v1.8C3,6.955,3.045,7,3.1,7h13.8C16.955,7,17,6.955,17,6.9V5.1C17,5.045,16.955,5,16.9,5z M3.1,11h7.8c0.055,0,0.1-0.045,0.1-0.1V9.1C11,9.045,10.955,9,10.9,9H3.1C3.045,9,3,9.045,3,9.1v1.8C3,10.955,3.045,11,3.1,11z M3.1,15h11.8c0.055,0,0.1-0.045,0.1-0.1v-1.8c0-0.055-0.045-0.1-0.1-0.1H3.1C3.045,13,3,13.045,3,13.1v1.8C3,14.955,3.045,15,3.1,15z M16.9,17H3.1C3.045,17,3,17.045,3,17.1v1.8C3,18.955,3.045,19,3.1,19h13.8c0.055,0,0.1-0.045,0.1-0.1v-1.8C17,17.045,16.955,17,16.9,17z"/></svg>