<svg xmlns="http://www.w3.org/2000/svg" viewBox="0 0 24 24"><path d="M19,12.9v-1.8c0-0.055-0.045-0.1-0.1-0.1H5.1C5.045,11,5,11.045,5,11.1v1.8C5,12.955,5.045,13,5.1,13h13.8C18.955,13,19,12.955,19,12.9z"/><path d="M11.929,15.071l-3.759,3.759C8.108,18.892,8.152,19,8.241,19H10.9c0.055,0,0.1,0.045,0.1,0.1v2.8c0,0.055,0.045,0.1,0.1,0.1h1.8c0.055,0,0.1-0.045,0.1-0.1v-2.8c0-0.055,0.045-0.1,0.1-0.1h2.659c0.089,0,0.134-0.108,0.071-0.171l-3.759-3.759C12.032,15.032,11.968,15.032,11.929,15.071z"/><path d="M12.071,8.929l3.759-3.759C15.892,5.108,15.848,5,15.759,5H13.1C13.045,5,13,4.955,13,4.9V2.1C13,2.045,12.955,2,12.9,2h-1.8C11.045,2,11,2.045,11,2.1v2.8C11,4.955,10.955,5,10.9,5H8.241C8.152,5,8.108,5.108,8.171,5.171l3.759,3.759C11.968,8.968,12.032,8.968,12.071,8.929z"/></svg>