<svg xmlns="http://www.w3.org/2000/svg" viewBox="0 0 24 24"><path d="M7,5.1v1.8C7,6.955,7.045,7,7.1,7h13.8C20.955,7,21,6.955,21,6.9V5.1C21,5.045,20.955,5,20.9,5H7.1C7.045,5,7,5.045,7,5.1z M13.1,11h7.8c0.055,0,0.1-0.045,0.1-0.1V9.1C21,9.045,20.955,9,20.9,9h-7.8C13.045,9,13,9.045,13,9.1v1.8C13,10.955,13.045,11,13.1,11z M9.1,15h11.8c0.055,0,0.1-0.045,0.1-0.1v-1.8c0-0.055-0.045-0.1-0.1-0.1H9.1C9.045,13,9,13.045,9,13.1v1.8C9,14.955,9.045,15,9.1,15z M7.1,19h13.8c0.055,0,0.1-0.045,0.1-0.1v-1.8c0-0.055-0.045-0.1-0.1-0.1H7.1C7.045,17,7,17.045,7,17.1v1.8C7,18.955,7.045,19,7.1,19z"/></svg>