<svg xmlns="http://www.w3.org/2000/svg" viewBox="0 0 24 24"><path d="M5,5.1v1.8C5,6.955,5.045,7,5.1,7h13.8C18.955,7,19,6.955,19,6.9V5.1C19,5.045,18.955,5,18.9,5H5.1C5.045,5,5,5.045,5,5.1z M5,17.1v1.8C5,18.955,5.045,19,5.1,19h13.8c0.055,0,0.1-0.045,0.1-0.1v-1.8c0-0.055-0.045-0.1-0.1-0.1H5.1C5.045,17,5,17.045,5,17.1z M9,9.1v1.8C9,10.955,9.045,11,9.1,11h6.8c0.055,0,0.1-0.045,0.1-0.1V9.1C16,9.045,15.955,9,15.9,9H9.1C9.045,9,9,9.045,9,9.1z M7.083,15h9.833C16.963,15,17,14.955,17,14.9v-1.8c0-0.055-0.037-0.1-0.083-0.1H7.083C7.037,13,7,13.045,7,13.1v1.8C7,14.955,7.037,15,7.083,15z"/></svg>