<svg xmlns="http://www.w3.org/2000/svg" viewBox="0 0 24 24"><path d="M5,5.1v1.8C5,6.955,5.045,7,5.1,7h13.8C18.955,7,19,6.955,19,6.9V5.1C19,5.045,18.955,5,18.9,5H5.1C5.045,5,5,5.045,5,5.1z M5,9.1v1.8C5,10.955,5.045,11,5.1,11h13.8c0.055,0,0.1-0.045,0.1-0.1V9.1C19,9.045,18.955,9,18.9,9H5.1C5.045,9,5,9.045,5,9.1z M5.1,15h13.8c0.055,0,0.1-0.045,0.1-0.1v-1.8c0-0.055-0.045-0.1-0.1-0.1H5.1C5.045,13,5,13.045,5,13.1v1.8C5,14.955,5.045,15,5.1,15z M19,18.9v-1.8c0-0.055-0.045-0.1-0.1-0.1H5.1C5.045,17,5,17.045,5,17.1v1.8C5,18.955,5.045,19,5.1,19h13.8C18.955,19,19,18.955,19,18.9z"/></svg>