<svg xmlns="http://www.w3.org/2000/svg" viewBox="0 0 24 24"><path d="M5.66,17.84a4.14,4.14,0,0,0,4,1.21A7.46,7.46,0,0,0,13,16.77l4.92-5a8.51,8.51,0,0,0,1.28-1.5,3.31,3.31,0,0,0,.58-2.08A3.53,3.53,0,0,0,19,6.41,3.54,3.54,0,0,0,16,4.82a4.42,4.42,0,0,0-2.65,1.6L8,11.77a2.91,2.91,0,0,0-.78,1.84A2.28,2.28,0,0,0,8,15.31a2.41,2.41,0,0,0,3.53,0l5-5-.71-.71-5,5a1.43,1.43,0,0,1-2.12,0h0a1.42,1.42,0,0,1,0-2.11L14,7.18a3.75,3.75,0,0,1,2.07-1.36A2.69,2.69,0,0,1,18.17,7a2.54,2.54,0,0,1,.58,1.31,2.45,2.45,0,0,1-.42,1.46,9,9,0,0,1-1.15,1.33l-4.92,4.95a6.54,6.54,0,0,1-2.84,2,3.51,3.51,0,0,1-4-2.42c-.71-2,.94-3.66,2.39-5.1l4.48-4.45-.71-.71L7.11,9.85C5.52,11.42,3.55,13.37,4.48,16A5,5,0,0,0,5.66,17.84Z"/></svg>