<svg xmlns="http://www.w3.org/2000/svg" viewBox="0 0 24 24"><path d="M14.55,12l2-2-.71-.71-5,5a1.43,1.43,0,0,1-2.12,0h0a1.42,1.42,0,0,1,0-2.11L14,6.82a3.75,3.75,0,0,1,2.07-1.36,2.69,2.69,0,0,1,2.06,1.19A2.54,2.54,0,0,1,18.75,8a2.45,2.45,0,0,1-.42,1.46,9,9,0,0,1-1.15,1.33l-.89.9a4,4,0,0,1,1.2.2l.4-.4A8.88,8.88,0,0,0,19.17,10a3.31,3.31,0,0,0,.58-2.08A3.53,3.53,0,0,0,19,6.05,3.54,3.54,0,0,0,16,4.46a4.42,4.42,0,0,0-2.65,1.6L8,11.41a2.88,2.88,0,0,0-.78,1.84A2.28,2.28,0,0,0,8,15a2.41,2.41,0,0,0,3.53,0l.61-.61A4.37,4.37,0,0,1,14.55,12ZM9.42,17.72a3.52,3.52,0,0,1-4-2.42c-.71-2,.94-3.66,2.39-5.1l4.48-4.45L11.58,5,7.11,9.49C5.52,11.06,3.55,13,4.48,15.63a5,5,0,0,0,1.18,1.85,4.14,4.14,0,0,0,4,1.21,5.92,5.92,0,0,0,2.38-1.41,4.23,4.23,0,0,1-.2-1.18A5.73,5.73,0,0,1,9.42,17.72Zm6.76-5.33A3.58,3.58,0,1,0,19.76,16,3.58,3.58,0,0,0,16.18,12.39Zm1.41,4H14.35v-.91h3.24Z"/></svg>