<svg xmlns="http://www.w3.org/2000/svg" viewBox="0 0 24 24"><path d="M7.278,5.1c0-0.055,0.045-0.1,0.1-0.1h5.182c1.637,0,2.573,0.175,3.411,0.663c0.916,0.546,1.482,1.559,1.482,2.651c0,1.189-0.532,2.042-1.662,2.643c-0.07,0.037-0.07,0.134,0.001,0.171c1.379,0.711,1.973,1.649,1.973,3.092c0,1.228-0.487,2.281-1.345,2.924C15.581,17.785,14.665,18,12.814,18H7.378c-0.055,0-0.1-0.045-0.1-0.1V5.1z M12.931,10.048c1.052,0,1.598-0.429,1.598-1.286c0-0.838-0.546-1.267-1.598-1.267h-2.687c-0.055,0-0.1,0.045-0.1,0.1v2.353c0,0.055,0.045,0.1,0.1,0.1H12.931z M12.891,15.505c1.228,0,1.891-0.545,1.891-1.579c0-1.033-0.663-1.579-1.891-1.579h-2.648c-0.055,0-0.1,0.045-0.1,0.1v2.958c0,0.055,0.045,0.1,0.1,0.1H12.891z"/></svg>