<svg xmlns="http://www.w3.org/2000/svg" viewBox="0 0 24 24"><path d="M3.1,21h1.8C4.955,21,5,20.955,5,20.9v-1.8C5,19.045,4.955,19,4.9,19H3.1C3.045,19,3,19.045,3,19.1v1.8C3,20.955,3.045,21,3.1,21z M7.1,21h1.8C8.955,21,9,20.955,9,20.9v-1.8C9,19.045,8.955,19,8.9,19H7.1C7.045,19,7,19.045,7,19.1v1.8C7,20.955,7.045,21,7.1,21z M15.1,21h1.8c0.055,0,0.1-0.045,0.1-0.1v-1.8c0-0.055-0.045-0.1-0.1-0.1h-1.8c-0.055,0-0.1,0.045-0.1,0.1v1.8C15,20.955,15.045,21,15.1,21z M19,3.1v17.8c0,0.055,0.045,0.1,0.1,0.1h1.8c0.055,0,0.1-0.045,0.1-0.1V3.1C21,3.045,20.955,3,20.9,3h-1.8C19.045,3,19,3.045,19,3.1z M3.1,17h1.8C4.955,17,5,16.955,5,16.9v-1.8C5,15.045,4.955,15,4.9,15H3.1C3.045,15,3,15.045,3,15.1v1.8C3,16.955,3.045,17,3.1,17z M3.1,13h1.8C4.955,13,5,12.955,5,12.9v-1.8C5,11.045,4.955,11,4.9,11H3.1C3.045,11,3,11.045,3,11.1v1.8C3,12.955,3.045,13,3.1,13z M7.1,13h1.8C8.955,13,9,12.955,9,12.9v-1.8C9,11.045,8.955,11,8.9,11H7.1C7.045,11,7,11.045,7,11.1v1.8C7,12.955,7.045,13,7.1,13z M15.1,13h1.8c0.055,0,0.1-0.045,0.1-0.1v-1.8c0-0.055-0.045-0.1-0.1-0.1h-1.8c-0.055,0-0.1,0.045-0.1,0.1v1.8C15,12.955,15.045,13,15.1,13z M15.1,5h1.8C16.955,5,17,4.955,17,4.9V3.1C17,3.045,16.955,3,16.9,3h-1.8C15.045,3,15,3.045,15,3.1v1.8C15,4.955,15.045,5,15.1,5z M11.1,13h1.8c0.055,0,0.1-0.045,0.1-0.1v-1.8c0-0.055-0.045-0.1-0.1-0.1h-1.8c-0.055,0-0.1,0.045-0.1,0.1v1.8C11,12.955,11.045,13,11.1,13z M3.1,9h1.8C4.955,9,5,8.955,5,8.9V7.1C5,7.045,4.955,7,4.9,7H3.1C3.045,7,3,7.045,3,7.1v1.8C3,8.955,3.045,9,3.1,9z M3.1,5h1.8C4.955,5,5,4.955,5,4.9V3.1C5,3.045,4.955,3,4.9,3H3.1C3.045,3,3,3.045,3,3.1v1.8C3,4.955,3.045,5,3.1,5z M7.1,5h1.8C8.955,5,9,4.955,9,4.9V3.1C9,3.045,8.955,3,8.9,3H7.1C7.045,3,7,3.045,7,3.1v1.8C7,4.955,7.045,5,7.1,5z M11.1,21h1.8c0.055,0,0.1-0.045,0.1-0.1v-1.8c0-0.055-0.045-0.1-0.1-0.1h-1.8c-0.055,0-0.1,0.045-0.1,0.1v1.8C11,20.955,11.045,21,11.1,21z M11.1,17h1.8c0.055,0,0.1-0.045,0.1-0.1v-1.8c0-0.055-0.045-0.1-0.1-0.1h-1.8c-0.055,0-0.1,0.045-0.1,0.1v1.8C11,16.955,11.045,17,11.1,17z M11.1,9h1.8C12.955,9,13,8.955,13,8.9V7.1C13,7.045,12.955,7,12.9,7h-1.8C11.045,7,11,7.045,11,7.1v1.8C11,8.955,11.045,9,11.1,9z M11.1,5h1.8C12.955,5,13,4.955,13,4.9V3.1C13,3.045,12.955,3,12.9,3h-1.8C11.045,3,11,3.045,11,3.1v1.8C11,4.955,11.045,5,11.1,5z"/></svg>