<svg xmlns="http://www.w3.org/2000/svg" viewBox="0 0 24 24"><path d="M3,19.1v1.8C3,20.955,3.045,21,3.1,21h17.8c0.055,0,0.1-0.045,0.1-0.1v-1.8c0-0.055-0.045-0.1-0.1-0.1H3.1C3.045,19,3,19.045,3,19.1z M12.465,14.222c0.039,0.039,0.102,0.039,0.141,0l7.93-7.93c0.039-0.039,0.039-0.102,0-0.141l-2.687-2.687c-0.039-0.039-0.102-0.039-0.141,0l-7.93,7.93c-0.039,0.039-0.039,0.102,0,0.141L12.465,14.222z M7.102,17h3.695c0.229,0,0.344-0.277,0.182-0.439l-3.532-3.486c-0.162-0.162-0.439-0.047-0.439,0.182L7.002,16.9C7.002,16.955,7.046,17,7.102,17z"/></svg>