<svg xmlns="http://www.w3.org/2000/svg" viewBox="0 0 24 24"><path d="M12.9,7h-1.8C11.045,7,11,7.045,11,7.1v1.8C11,8.955,11.045,9,11.1,9h1.8C12.955,9,13,8.955,13,8.9V7.1C13,7.045,12.955,7,12.9,7z M16.9,11h-1.8c-0.055,0-0.1,0.045-0.1,0.1v1.8c0,0.055,0.045,0.1,0.1,0.1h1.8c0.055,0,0.1-0.045,0.1-0.1v-1.8C17,11.045,16.955,11,16.9,11z M12.9,11h-1.8c-0.055,0-0.1,0.045-0.1,0.1v1.8c0,0.055,0.045,0.1,0.1,0.1h1.8c0.055,0,0.1-0.045,0.1-0.1v-1.8C13,11.045,12.955,11,12.9,11z M12.9,15h-1.8c-0.055,0-0.1,0.045-0.1,0.1v1.8c0,0.055,0.045,0.1,0.1,0.1h1.8c0.055,0,0.1-0.045,0.1-0.1v-1.8C13,15.045,12.955,15,12.9,15z M3,3.1v17.8C3,20.955,3.045,21,3.1,21h17.8c0.055,0,0.1-0.045,0.1-0.1V3.1C21,3.045,20.955,3,20.9,3H3.1C3.045,3,3,3.045,3,3.1z M18.9,19H5.1C5.045,19,5,18.955,5,18.9V5.1C5,5.045,5.045,5,5.1,5h13.8C18.955,5,19,5.045,19,5.1v13.8C19,18.955,18.955,19,18.9,19z M8.9,11H7.1C7.045,11,7,11.045,7,11.1v1.8C7,12.955,7.045,13,7.1,13h1.8C8.955,13,9,12.955,9,12.9v-1.8C9,11.045,8.955,11,8.9,11z"/></svg>