<svg xmlns="http://www.w3.org/2000/svg" viewBox="0 0 24 24"><path d="M3,3.1v17.8C3,20.955,3.045,21,3.1,21h17.8c0.055,0,0.1-0.045,0.1-0.1V3.1C21,3.045,20.955,3,20.9,3H3.1C3.045,3,3,3.045,3,3.1z M5.1,5h5.8C10.955,5,11,5.045,11,5.1v5.8c0,0.055-0.045,0.1-0.1,0.1H5.1C5.045,11,5,10.955,5,10.9V5.1C5,5.045,5.045,5,5.1,5z M5,18.9v-5.8C5,13.045,5.045,13,5.1,13h5.8c0.055,0,0.1,0.045,0.1,0.1v5.8c0,0.055-0.045,0.1-0.1,0.1H5.1C5.045,19,5,18.955,5,18.9z M18.9,19h-5.8c-0.055,0-0.1-0.045-0.1-0.1v-5.8c0-0.055,0.045-0.1,0.1-0.1h5.8c0.055,0,0.1,0.045,0.1,0.1v5.8C19,18.955,18.955,19,18.9,19z M13,10.9V5.1C13,5.045,13.045,5,13.1,5h5.8C18.955,5,19,5.045,19,5.1v5.8c0,0.055-0.045,0.1-0.1,0.1h-5.8C13.045,11,13,10.955,13,10.9z"/></svg>