<svg xmlns="http://www.w3.org/2000/svg" viewBox="0 0 24 24"><path d="M10,5.1v1.8C10,6.955,10.045,7,10.1,7h8.8C18.955,7,19,6.955,19,6.9V5.1C19,5.045,18.955,5,18.9,5h-8.8C10.045,5,10,5.045,10,5.1z M10.1,13h8.8c0.055,0,0.1-0.045,0.1-0.1v-1.8c0-0.055-0.045-0.1-0.1-0.1h-8.8c-0.055,0-0.1,0.045-0.1,0.1v1.8C10,12.955,10.045,13,10.1,13z M10.1,19h8.8c0.055,0,0.1-0.045,0.1-0.1v-1.8c0-0.055-0.045-0.1-0.1-0.1h-8.8c-0.055,0-0.1,0.045-0.1,0.1v1.8C10,18.955,10.045,19,10.1,19z M6,4C4.895,4,4,4.895,4,6c0,1.105,0.895,2,2,2s2-0.895,2-2C8,4.895,7.105,4,6,4z M6,10c-1.105,0-2,0.895-2,2c0,1.105,0.895,2,2,2s2-0.895,2-2C8,10.895,7.105,10,6,10z M6,16c-1.105,0-2,0.895-2,2c0,1.105,0.895,2,2,2s2-0.895,2-2C8,16.895,7.105,16,6,16z"/></svg>