<svg xmlns="http://www.w3.org/2000/svg" viewBox="0 0 24 24"><path d="M17,4.9V3.1C17,3.045,16.955,3,16.9,3h-1.8C15.045,3,15,3.045,15,3.1v1.8C15,4.955,14.955,5,14.9,5H9.1C9.045,5,9,4.955,9,4.9V3.1C9,3.045,8.955,3,8.9,3H7.1C7.045,3,7,3.045,7,3.1v1.8C7,4.955,6.955,5,6.9,5H3.1C3.045,5,3,5.045,3,5.1v15.8C3,20.955,3.045,21,3.1,21h17.8c0.055,0,0.1-0.045,0.1-0.1V5.1C21,5.045,20.955,5,20.9,5h-3.8C17.045,5,17,4.955,17,4.9z M18.9,19H5.1C5.045,19,5,18.955,5,18.9V8.1C5,8.045,5.045,8,5.1,8H7v1h2V8h6v1h2V8h1.9C18.955,8,19,8.045,19,8.1v10.8C19,18.955,18.955,19,18.9,19z M7.1,14h1.8C8.955,14,9,13.955,9,13.9v-1.8C9,12.045,8.955,12,8.9,12H7.1C7.045,12,7,12.045,7,12.1v1.8C7,13.955,7.045,14,7.1,14z M7.1,17h1.8C8.955,17,9,16.955,9,16.9v-1.8C9,15.045,8.955,15,8.9,15H7.1C7.045,15,7,15.045,7,15.1v1.8C7,16.955,7.045,17,7.1,17z M11.1,14h1.8c0.055,0,0.1-0.045,0.1-0.1v-1.8c0-0.055-0.045-0.1-0.1-0.1h-1.8c-0.055,0-0.1,0.045-0.1,0.1v1.8C11,13.955,11.045,14,11.1,14z M11.1,17h1.8c0.055,0,0.1-0.045,0.1-0.1v-1.8c0-0.055-0.045-0.1-0.1-0.1h-1.8c-0.055,0-0.1,0.045-0.1,0.1v1.8C11,16.955,11.045,17,11.1,17z M15.1,14h1.8c0.055,0,0.1-0.045,0.1-0.1v-1.8c0-0.055-0.045-0.1-0.1-0.1h-1.8c-0.055,0-0.1,0.045-0.1,0.1v1.8C15,13.955,15.045,14,15.1,14z M15.1,17h1.8c0.055,0,0.1-0.045,0.1-0.1v-1.8c0-0.055-0.045-0.1-0.1-0.1h-1.8c-0.055,0-0.1,0.045-0.1,0.1v1.8C15,16.955,15.045,17,15.1,17z"/></svg>