<svg xmlns="http://www.w3.org/2000/svg" viewBox="0 0 24 24"><path d="M17.07,11.38,9,19.48a.1.1,0,0,0,0,.16,7.84,7.84,0,0,0,6.91.05A4.62,4.62,0,0,0,18.17,17,5.41,5.41,0,0,0,18,13.26a2.44,2.44,0,0,0-.1-.24l-.24-.57A10.42,10.42,0,0,0,17.07,11.38ZM19,3.57,14.89,7.65a.1.1,0,0,1-.16,0C13.55,5.8,12.4,4.05,12.08,3.58a.09.09,0,0,0-.16,0C10.73,5.37,9.54,7.2,8.38,9,8,9.65,7.6,10.27,7.22,10.9a8.43,8.43,0,0,0-.87,1.55,4.67,4.67,0,0,0-.35,2,5.86,5.86,0,0,0,.27,1.74.09.09,0,0,1,0,.1L3.61,18.93a.1.1,0,0,0,0,.14l1.28,1.27a.1.1,0,0,0,.14,0L20.39,5a.1.1,0,0,0,0-.14L19.11,3.57A.1.1,0,0,0,19,3.57Z"/></svg>