<svg xmlns="http://www.w3.org/2000/svg" viewBox="0 0 24 24"><path d="M12,4a8,8,0,1,0,8,8A8,8,0,0,0,12,4Zm0,15.11A7.11,7.11,0,1,1,19.11,12,7.12,7.12,0,0,1,12,19.11Z"/><circle cx="12" cy="6.22" r="0.44"/><circle cx="12" cy="17.78" r="0.44"/><circle cx="17.78" cy="12" r="0.44"/><circle cx="6.22" cy="12" r="0.44"/><path d="M16.09,15.64a.44.44,0,0,0-.32.13.45.45,0,0,0,0,.63.44.44,0,0,0,.32.13.43.43,0,0,0,.31-.13.45.45,0,0,0,0-.63A.43.43,0,0,0,16.09,15.64Z"/><path d="M7.91,7.47a.43.43,0,0,0-.31.13.45.45,0,0,0,0,.63.43.43,0,0,0,.31.13.44.44,0,0,0,.32-.13.45.45,0,0,0,0-.63A.44.44,0,0,0,7.91,7.47Z"/><path d="M16.09,7.47a.44.44,0,0,0-.32.13.45.45,0,0,0,0,.63.44.44,0,0,0,.32.13.43.43,0,0,0,.31-.13.45.45,0,0,0,0-.63A.43.43,0,0,0,16.09,7.47Z"/><path d="M7.91,15.64a.43.43,0,0,0-.31.13.45.45,0,0,0,0,.63.43.43,0,0,0,.31.13.44.44,0,0,0,.32-.13.45.45,0,0,0,0-.63A.44.44,0,0,0,7.91,15.64Z"/><path d="M14.28,13.64l-1.79-1.79V8.45a.45.45,0,1,0-.89,0V12h0a.45.45,0,0,0,.13.32l1.92,1.92a.45.45,0,0,0,.63-.63Z"/></svg>