<svg xmlns="http://www.w3.org/2000/svg" viewBox="0 0 24 24"><path d="M18.136,7.136l-1.273-1.273c-0.039-0.039-0.102-0.039-0.141,0l-4.523,4.523c-0.039,0.039-0.102,0.039-0.141,0L7.535,5.864c-0.039-0.039-0.102-0.039-0.141,0L6.121,7.136c-0.039,0.039-0.039,0.102,0,0.141l4.523,4.523c0.039,0.039,0.039,0.102,0,0.141l-4.523,4.523c-0.039,0.039-0.039,0.102,0,0.141l1.273,1.273c0.039,0.039,0.102,0.039,0.141,0l4.523-4.523c0.039-0.039,0.102-0.039,0.141,0l4.523,4.523c0.039,0.039,0.102,0.039,0.141,0l1.273-1.273c0.039-0.039,0.039-0.102,0-0.141l-4.523-4.523c-0.039-0.039-0.039-0.102,0-0.141l4.523-4.523C18.175,7.239,18.175,7.175,18.136,7.136z"/></svg>