<svg xmlns="http://www.w3.org/2000/svg" viewBox="0 0 24 24"><path d="M8.722,5.864l-5.937,5.937c-0.039,0.039-0.039,0.102,0,0.141l5.937,5.937c0.039,0.039,0.102,0.039,0.141,0l1.273-1.273c0.039-0.039,0.039-0.102,0-0.141l-4.523-4.523c-0.039-0.039-0.039-0.102,0-0.141l4.523-4.523c0.039-0.039,0.039-0.102,0-0.141L8.864,5.864C8.825,5.825,8.761,5.825,8.722,5.864z M15.058,5.864l-1.273,1.273c-0.039,0.039-0.039,0.102,0,0.141l4.523,4.523c0.039,0.039,0.039,0.102,0,0.141l-4.523,4.523c-0.039,0.039-0.039,0.102,0,0.141l1.273,1.273c0.039,0.039,0.102,0.039,0.141,0l5.937-5.937c0.039-0.039,0.039-0.102,0-0.141l-5.937-5.937C15.16,5.825,15.097,5.825,15.058,5.864z"/></svg>