<svg xmlns="http://www.w3.org/2000/svg" viewBox="0 0 24 24"><path d="M14.9,9.12a5.25,5.25,0,1,0,5.25,5.25A5.25,5.25,0,0,0,14.9,9.12Zm.26,8v.68h-.49v-.68c-1.21-.08-1.95-.73-2-1.76h1.15c0,.51.3.75.84.79V14.78a7.08,7.08,0,0,1-.82-.24,1.38,1.38,0,0,1-1.06-1.38c0-.92.73-1.56,1.88-1.63V11h.49v.56A1.77,1.77,0,0,1,17,13.17H15.83a.74.74,0,0,0-.67-.68v1.25A5.78,5.78,0,0,1,16,14a1.41,1.41,0,0,1,1.09,1.42C17.12,16.32,16.39,17,15.16,17.09Z"/><path d="M14,13.05c0,.3.22.48.7.59V12.49a1.52,1.52,0,0,0-.29.07A.55.55,0,0,0,14,13.05Z"/><path d="M15.16,14.89v1.23c.46,0,.76-.27.76-.59S15.69,15,15.16,14.89Z"/><path d="M10.85,7.38c3.87,0,7-.67,7-1.5s-3.13-1.5-7-1.5-7,.67-7,1.5S7,7.38,10.85,7.38Zm-7,0v2a20.67,20.67,0,0,0,6.32,1,6.22,6.22,0,0,1,7.68-1.45V7.38a21.39,21.39,0,0,1-7,1A21.47,21.47,0,0,1,3.85,7.38ZM8.71,14.3a19.19,19.19,0,0,1-4.86-.92v2A19.82,19.82,0,0,0,9,16.32a6.27,6.27,0,0,1-.31-2ZM3.85,12.38a19.26,19.26,0,0,0,5,.92,5.9,5.9,0,0,1,.7-2,20.37,20.37,0,0,1-5.65-1Z"/></svg>