<svg xmlns="http://www.w3.org/2000/svg" viewBox="0 0 24 24"><path d="M16.766,12.113h-3.019c-1.033,0-1.949,0.511-2.519,1.29c-0.018,0.024-0.045,0.039-0.076,0.039H7.752c-2.013,0-3.657,1.61-3.737,3.605L4,17.047l0.002,0.13c0,0.005-0.002,0.01-0.002,0.015h0.002l0.032,2.696c0.001,0.055,0.045,0.099,0.1,0.099h11.025c0.055,0,0.1-0.045,0.1-0.1l-0.004-2.695c0-2.063-1.688-3.752-3.752-3.752h0.993c0.762,0,1.47,0.233,2.06,0.63c0.691,0.465,1.213,1.265,1.249,2.096c0.002,0.052,0.042,0.092,0.094,0.092l4-0.011c0.055,0,0.1-0.045,0.1-0.1v-0.801C20,13.568,18.545,12.113,16.766,12.113z M9,12c2.209,0,4-1.791,4-4c0-2.209-1.791-4-4-4S5,5.791,5,8C5,10.209,6.791,12,9,12z M15,11c1.657,0,3-1.343,3-3s-1.343-3-3-3c-0.624,0-1.204,0.191-1.684,0.518C13.739,6.252,14,7.092,14,8s-0.261,1.748-0.684,2.482C13.796,10.809,14.376,11,15,11z"/></svg>