<svg xmlns="http://www.w3.org/2000/svg" viewBox="0 0 24 24"><path d="M12,3c-4.937,0-9,4.063-9,9s4.063,9,9,9v-9l9-0.003C20.998,7.061,16.936,3,12,3z M5.094,9.974c0-0.979,0.794-1.773,1.773-1.773c0.979,0,1.773,0.794,1.773,1.773s-0.794,1.773-1.773,1.773C5.887,11.747,5.094,10.953,5.094,9.974z M8.048,17.656c-0.979,0-1.773-0.794-1.773-1.773c0-0.979,0.794-1.773,1.773-1.773s1.773,0.794,1.773,1.773C9.821,16.863,9.027,17.656,8.048,17.656z M11.594,8.202c-0.979,0-1.773-0.794-1.773-1.773s0.794-1.773,1.773-1.773s1.773,0.794,1.773,1.773S12.573,8.202,11.594,8.202z M16.321,10.565c-0.979,0-1.773-0.794-1.773-1.773s0.794-1.773,1.773-1.773c0.979,0,1.773,0.794,1.773,1.773S17.3,10.565,16.321,10.565z"/></svg>