<svg xmlns="http://www.w3.org/2000/svg" viewBox="0 0 24 24"><path d="M7.133,19.573c-0.148-0.596-0.888-1.211-0.933-1.248v-0.007c0,0-0.004,0.003-0.004,0.004c0,0-0.004-0.004-0.004-0.004v0.007c-0.045,0.037-0.785,0.652-0.933,1.248c-0.152,0.612,0.256,1.336,0.933,1.367v0.001c0.001,0,0.003-0.001,0.004-0.001c0.001,0,0.003,0.001,0.004,0.001V20.94C6.877,20.909,7.285,20.185,7.133,19.573z"/><path d="M19.749,3.328c-0.964-0.556-2.197-0.32-2.983,0.467l-1.667,1.667l-0.991-0.991c-0.405-0.405-1.068-0.405-1.473,0l-0.254,0.254c-0.405,0.405-0.405,1.068,0,1.473l0.991,0.991L7.25,13.311c-0.009,0.016-0.017,0.031-0.026,0.047L6.26,17.313c-0.048,0.198,0.126,0.378,0.325,0.336l4.069-0.855c0.017-0.009,0.033-0.018,0.05-0.027l6.122-6.123l0.991,0.991c0.405,0.405,1.068,0.405,1.473,0l0.254-0.254c0.405-0.405,0.405-1.068,0-1.473l-0.991-0.991l1.727-1.727C21.384,6.086,21.207,4.169,19.749,3.328z M12.977,13H9.523l4.556-4.557l0.864,0.864c0,0,0,0,0,0s0,0,0,0l0.864,0.864L12.977,13z"/></svg>