<svg xmlns="http://www.w3.org/2000/svg" viewBox="0 0 24 24"><path d="M12.57,10.64a14.81,14.81,0,0,1,1.86.48,3,3,0,0,1,2.34,3.05c0,2-1.57,3.41-4.2,3.67V19.3H11.52V17.84c-2.62-.16-4.2-1.55-4.29-3.77H9.71c.09,1.08.64,1.6,1.81,1.7V12.88a11.76,11.76,0,0,1-1.78-.52,3,3,0,0,1-2.27-3c0-2,1.57-3.34,4.05-3.49V4.7h1.05V5.91a3.77,3.77,0,0,1,3.85,3.51H14A1.58,1.58,0,0,0,12.57,8ZM11.52,8a2.29,2.29,0,0,0-.64.14A1.2,1.2,0,0,0,10,9.18c0,.63.47,1,1.52,1.25Zm1.05,7.8c1-.09,1.61-.59,1.61-1.27s-.48-1.12-1.61-1.38Z"/></svg>