<svg xmlns="http://www.w3.org/2000/svg" viewBox="0 0 24 24"><path d="M20.002,8.569c0.855-0.784,0.037-2.251-1-1.732l-5.621,3.245c-0.037,0.021-0.085,0.015-0.117-0.012c-0.562-0.477-0.971-0.824-1.095-0.929c-0.606-0.512,0.222-2.289-0.559-2.813c-5.932-3.98-6.94,2.827-6.477,3.188c0.009,0.007,0.018,0.011,0.028,0.017l4.435,2.561c0.067,0.038,0.067,0.135,0,0.173l-4.451,2.57c-0.494,0.247,0.5,6.455,6.464,3.196c0.825-0.451-0.047-2.3,0.559-2.813C12.775,14.708,20.002,8.569,20.002,8.569z M8.719,18.167c-1.179,0-2.135-0.956-2.135-2.135c0-1.179,0.956-2.135,2.135-2.135s2.135,0.956,2.135,2.135C10.854,17.211,9.898,18.167,8.719,18.167z M8.719,10.333c-1.179,0-2.135-0.956-2.135-2.135c0-1.179,0.956-2.135,2.135-2.135s2.135,0.956,2.135,2.135C10.854,9.377,9.898,10.333,8.719,10.333z M17.144,13.321c-0.04-0.034-0.099-0.032-0.136,0.005l-1.905,1.905c-0.047,0.047-0.036,0.124,0.021,0.157l3.878,2.135c1.037,0.519,1.855-0.948,1-1.732C20.002,15.792,18.917,14.827,17.144,13.321z"/></svg>