<svg xmlns="http://www.w3.org/2000/svg" viewBox="0 0 24 24"><path d="M11,8.92c-5.57,0-6.5-1.17-6.5-1.17v2.33s.93,1.17,6.5,1.17,6.5-1.17,6.5-1.17V7.75S16.57,8.92,11,8.92Zm0-1.17c3.59,0,6.5-.78,6.5-1.75S14.59,4.25,11,4.25,4.5,5,4.5,6,7.41,7.75,11,7.75Zm1,8.15-1,0c-5.57,0-6.5-1.17-6.5-1.17v2.33s.93,1.17,6.5,1.17c.56,0,1.06,0,1.54,0a3.84,3.84,0,0,1-.54-2A2.09,2.09,0,0,1,12,15.9Zm-1-3.48c-5.57,0-6.5-1.17-6.5-1.17v2.33s.93,1.17,6.5,1.17c.47,0,.9,0,1.3,0A4,4,0,0,1,16,12.25a3.94,3.94,0,0,1,1.5.3v-1.3S16.57,12.42,11,12.42Z"/><path d="M16,12.75a3.5,3.5,0,1,0,3.5,3.5A3.5,3.5,0,0,0,16,12.75Zm2,4H16.5v1.5h-1v-1.5H14v-1h1.5v-1.5h1v1.5H18Z"/></svg>