<svg xmlns="http://www.w3.org/2000/svg" viewBox="0 0 24 24"><path d="M19.59,14.39,18.18,13l-1.77,1.76L14.64,13l-1.41,1.41L15,16.16l-1.76,1.77,1.41,1.41,1.77-1.77,1.77,1.77,1.41-1.41-1.77-1.77ZM10.91,8.16c3.59,0,6.5-.78,6.5-1.75s-2.91-1.75-6.5-1.75-6.5.78-6.5,1.75S7.32,8.16,10.91,8.16Zm0,3.5c5.57,0,6.5-1.17,6.5-1.17V8.16s-.93,1.17-6.5,1.17-6.5-1.17-6.5-1.17v2.33S5.34,11.66,10.91,11.66Zm4,.89.07.07L16.41,14l1-1V11.66S17,12.2,14.92,12.55Zm-4,2.61c.88,0,1.63,0,2.3-.08l-.69-.69.35-.35,1.4-1.4a26.8,26.8,0,0,1-3.36.19c-5.57,0-6.5-1.17-6.5-1.17V14S5.34,15.16,10.91,15.16Zm2,2.41,1.42-1.41,0,0a26.8,26.8,0,0,1-3.36.19c-5.57,0-6.5-1.17-6.5-1.17v2.33s.93,1.17,6.5,1.17c.87,0,1.61,0,2.26-.08l-.65-.65Z"/></svg>