<svg xmlns="http://www.w3.org/2000/svg" viewBox="0 0 24 24"><path d="M3.1,14h1.8C4.955,14,5,13.955,5,13.9v-1.8C5,12.045,4.955,12,4.9,12H3.1C3.045,12,3,12.045,3,12.1v1.8C3,13.955,3.045,14,3.1,14z M11.698,4.556c-0.293-0.236-0.644-0.413-1.061-0.511c-0.548-0.128-1.128-0.127-1.671,0.027C8.2,4.29,7.563,4.811,7.17,5.501C6.706,6.317,6.509,7.315,6.509,8.763c0,1.434,0.197,2.39,0.661,3.233c0.534,0.998,1.518,1.589,2.643,1.589c1.139,0,2.123-0.59,2.657-1.589c0.45-0.815,0.66-1.813,0.66-3.177C13.13,7.373,12.868,5.498,11.698,4.556z M9.826,11.897c-0.913,0-1.391-1.068-1.391-3.149c0-2.066,0.478-3.135,1.378-3.135c0.928,0,1.391,1.069,1.391,3.177C11.204,10.829,10.726,11.897,9.826,11.897z M17.683,13.584c1.139,0,2.123-0.59,2.657-1.589C20.79,11.181,21,10.183,21,8.819c0-1.12-0.091-2.323-0.635-3.326c-0.637-1.176-1.944-1.767-3.259-1.513c-0.102,0.02-0.202,0.044-0.301,0.074c-0.757,0.226-1.386,0.758-1.765,1.448c-0.464,0.815-0.661,1.813-0.661,3.261c0,1.434,0.197,2.39,0.661,3.233C15.574,12.994,16.558,13.584,17.683,13.584z M17.683,5.614c0.928,0,1.391,1.069,1.391,3.177c0,2.038-0.478,3.107-1.378,3.107c-0.913,0-1.391-1.068-1.391-3.149C16.305,6.682,16.783,5.614,17.683,5.614z M18.5,16.775c0,0.055-0.045,0.1-0.1,0.1H14v1.25h4.4c0.055,0,0.1,0.045,0.1,0.1V20l2.429-2.429c0.039-0.039,0.039-0.102,0-0.141L18.5,15V16.775z"/></svg>