<svg xmlns="http://www.w3.org/2000/svg" viewBox="0 0 24 24"><path d="M3.1,14h1.8C4.955,14,5,13.955,5,13.9v-1.8C5,12.045,4.955,12,4.9,12H3.1C3.045,12,3,12.045,3,12.1v1.8C3,13.955,3.045,14,3.1,14z M11.716,4.533c-0.187-0.167-0.398-0.307-0.64-0.406C10.478,3.881,9.788,3.86,9.161,3.995C8.299,4.181,7.602,4.742,7.17,5.501C6.706,6.317,6.509,7.315,6.509,8.763c0,1.434,0.197,2.39,0.661,3.233c0.534,0.998,1.518,1.589,2.643,1.589c1.139,0,2.123-0.59,2.657-1.589c0.45-0.815,0.66-1.813,0.66-3.177c0-1.182-0.138-2.439-0.768-3.478C12.181,5.041,11.97,4.761,11.716,4.533z M9.826,11.897c-0.913,0-1.391-1.068-1.391-3.149c0-2.066,0.478-3.135,1.378-3.135c0.928,0,1.391,1.069,1.391,3.177C11.204,10.829,10.726,11.897,9.826,11.897z M16.6,16.875c-0.055,0-0.1-0.045-0.1-0.1V15l-2.429,2.429c-0.039,0.039-0.039,0.102,0,0.141L16.5,20v-1.775c0-0.055,0.045-0.1,0.1-0.1H21v-1.25H16.6z"/></svg>