<svg xmlns="http://www.w3.org/2000/svg" viewBox="0 0 24 24"><path d="M16.3,12.36a3.55,3.55,0,1,0,3.55,3.54A3.55,3.55,0,0,0,16.3,12.36Zm1.91,3.94H16.83v1.37h-.9V16.3H14.55v-.91h1.38V14h.9v1.37h1.38Z"/><path d="M9.13,15.69v.93h3a5.05,5.05,0,0,1-.07-.68c0-.08,0-.16,0-.25Z"/><path d="M7.28,18.92a.46.46,0,0,1-.46-.46V5.54a.46.46,0,0,1,.46-.46h6v2.3a1.39,1.39,0,0,0,1.39,1.39H17v3a4,4,0,0,1,.92.24V7.85l-3.73-3.7H7.28A1.38,1.38,0,0,0,5.9,5.54V18.46a1.38,1.38,0,0,0,1.38,1.39H14.6a4.43,4.43,0,0,1-1.33-.93ZM14.21,5.49l2.35,2.36H14.67a.46.46,0,0,1-.46-.47Z"/><path d="M14.67,12H9.13v.92h4.18A4.33,4.33,0,0,1,14.67,12Z"/><path d="M12.63,13.85H9.13v.92h3.11A3.75,3.75,0,0,1,12.63,13.85Z"/></svg>