<svg xmlns="http://www.w3.org/2000/svg" viewBox="0 0 24 24"><path d="M13.79,12H8.25v.92h5.54Zm.65,5.85h-.51v.78h.51a.52.52,0,0,0,.36-.1.38.38,0,0,0,.12-.29A.37.37,0,0,0,14.8,18,.52.52,0,0,0,14.44,17.85Zm-.65-4H8.25v.92h5.54Zm2.53,4H15.9v1.67h.4c.5,0,.75-.27.75-.85a1,1,0,0,0-.15-.58A.62.62,0,0,0,16.32,17.85Zm.7-1.23V7.85L13.3,4.15H6.41A1.39,1.39,0,0,0,5,5.54V18.46a1.39,1.39,0,0,0,1.39,1.39h6.44v1H20V16.62ZM13.33,5.49l2.35,2.36H13.79a.47.47,0,0,1-.46-.47Zm-.48,13.43H6.41A.45.45,0,0,1,6,18.46V5.54a.45.45,0,0,1,.46-.46h6v2.3a1.38,1.38,0,0,0,1.38,1.39H16.1v7.85H13.79v-.93H8.25v.93h4.6Zm2.17-.2a.79.79,0,0,1-.6.17h-.49v.91h-.32V17.57h.78a.9.9,0,0,1,.62.16.63.63,0,0,1,.22.51A.6.6,0,0,1,15,18.72Zm1.34,1.08h-.78V17.57h.81a.86.86,0,0,1,.78.36,1.26,1.26,0,0,1,.2.73A1,1,0,0,1,16.36,19.8Zm2.95-1.95H18.13v.66h1v.27h-1v1h-.32V17.57h1.5Z"/></svg>