<svg xmlns="http://www.w3.org/2000/svg" viewBox="0 0 24 24"><path d="M5.42,18.24A.47.47,0,0,1,5,17.78V4.85a.47.47,0,0,1,.47-.46h6V6.7A1.38,1.38,0,0,0,12.8,8.08h2.31v3a4,4,0,0,1,.92.25V7.16L12.3,3.47H5.42A1.38,1.38,0,0,0,4,4.85V17.78a1.38,1.38,0,0,0,1.39,1.38h7.32a4.16,4.16,0,0,1-1.34-.92ZM12.34,4.81l2.35,2.35H12.8a.47.47,0,0,1-.46-.46Zm.46,6.51H7.26v.92h4.18A4.36,4.36,0,0,1,12.8,11.32ZM7.26,15v.92h3a4.91,4.91,0,0,1-.06-.67c0-.09,0-.17,0-.25Zm3.5-1.85H7.26v.92h3.11A5,5,0,0,1,10.76,13.16Zm6.69,4s0,0,0-.06A3.38,3.38,0,0,0,18,15.24a3.55,3.55,0,1,0-3.55,3.47,3.6,3.6,0,0,0,2.27-.8,0,0,0,0,1,.06,0l2.48,2.6a0,0,0,0,0,.07,0l.64-.67a.06.06,0,0,0,0-.08Zm-3,.71a2.6,2.6,0,1,1,2.67-2.6A2.63,2.63,0,0,1,14.43,17.84Z"/></svg>