<svg xmlns="http://www.w3.org/2000/svg" viewBox="0 0 24 24"><path d="M11.75,13.85H8.25v.92h3.11A4.71,4.71,0,0,1,11.75,13.85Z"/><path d="M6.41,18.92A.45.45,0,0,1,6,18.46V5.54a.45.45,0,0,1,.46-.46h6v2.3a1.38,1.38,0,0,0,1.38,1.39H16.1v3A4,4,0,0,1,17,12V7.85L13.3,4.15H6.41A1.39,1.39,0,0,0,5,5.54V18.46a1.39,1.39,0,0,0,1.39,1.39h7.32a4.43,4.43,0,0,1-1.33-.93ZM13.33,5.49l2.35,2.36H13.79a.47.47,0,0,1-.46-.47Z"/><path d="M8.25,15.69v.93h3a3.82,3.82,0,0,1-.07-.68,2.42,2.42,0,0,1,0-.25Z"/><path d="M15.43,12.36A3.55,3.55,0,1,0,19,15.9,3.55,3.55,0,0,0,15.43,12.36ZM17,16.15H13.78v-.91H17Z"/><path d="M13.79,12H8.25v.92h4.18A4.33,4.33,0,0,1,13.79,12Z"/></svg>