<svg xmlns="http://www.w3.org/2000/svg" viewBox="0 0 24 24"><polygon points="13.79 12.92 13.79 12.01 13.79 12 9.61 12 8.25 12 8.25 12.91 8.25 12.92 12.43 12.92 13.79 12.92"/><polygon points="13.79 14.77 13.79 13.85 13.79 13.85 9.61 13.85 8.25 13.85 8.25 14.76 8.25 14.77 12.43 14.77 13.79 14.77"/><path d="M17,16.62V7.85L13.3,4.15H6.41A1.39,1.39,0,0,0,5,5.54V18.46a1.39,1.39,0,0,0,1.39,1.39h6.44v1H20V16.62ZM13.33,5.49l2.35,2.36H13.79a.47.47,0,0,1-.46-.47Zm-.48,13.43H6.41A.45.45,0,0,1,6,18.46V5.54a.45.45,0,0,1,.46-.46h6v2.3a1.38,1.38,0,0,0,1.38,1.39H16.1v7.85H13.79v-.93H8.25v.93h4.6Zm2.35.54a.89.89,0,0,1-.75.37.91.91,0,0,1-.76-.37,1.26,1.26,0,0,1-.24-.77,1,1,0,0,1,1-1.12.84.84,0,0,1,.88.7l-.3,0a.56.56,0,0,0-.58-.45c-.41,0-.68.33-.68.84s.27.88.67.88a.62.62,0,0,0,.62-.6h.31A.92.92,0,0,1,15.2,19.46Zm1.41.37a.84.84,0,0,1-.94-.81H16a.56.56,0,0,0,.63.54c.31,0,.53-.15.53-.37s-.11-.27-.34-.32l-.49-.12c-.39-.1-.57-.27-.57-.56s.31-.62.81-.62a.74.74,0,0,1,.83.71h-.32a.46.46,0,0,0-.53-.44c-.29,0-.48.12-.48.31s.12.26.39.32l.35.07a1,1,0,0,1,.49.21.56.56,0,0,1,.18.42C17.47,19.58,17.14,19.83,16.61,19.83Zm2.08,0h-.34l-.76-2.16h.33l.46,1.4.15.47c0-.22.08-.31.13-.47l.45-1.4h.33Z"/></svg>