<svg xmlns="http://www.w3.org/2000/svg" viewBox="0 0 24 24"><path d="M13.79,13.85H8.25v.92h5.54Zm0-1.85H8.25v.92h5.54ZM17,16.62V7.85L13.3,4.15H6.41A1.39,1.39,0,0,0,5,5.54V18.46a1.39,1.39,0,0,0,1.39,1.39h6.44v1H20V16.62ZM13.33,5.49l2.35,2.36H13.79a.47.47,0,0,1-.46-.47Zm-.48,13.43H6.41A.45.45,0,0,1,6,18.46V5.54a.45.45,0,0,1,.46-.46h6v2.3a1.38,1.38,0,0,0,1.38,1.39H16.1v7.85H13.79v-.93H8.25v.93h4.6Zm2.18.89-.6-.91-.57.91h-.39l.78-1.16-.75-1.09h.38l.55.84.55-.84h.38l-.75,1.09.79,1.16Zm2.16,0H15.7V17.56H16v2h1.17Zm1.18.05a.88.88,0,0,1-1-.84h.34a.58.58,0,0,0,.65.56c.33,0,.56-.16.56-.39s-.12-.28-.36-.33l-.51-.13c-.41-.09-.59-.27-.59-.58s.32-.64.84-.64a.76.76,0,0,1,.86.74h-.32a.49.49,0,0,0-.56-.46c-.3,0-.5.13-.5.32s.12.27.41.33l.36.08a1,1,0,0,1,.51.22.55.55,0,0,1,.18.43C19.26,19.6,18.92,19.86,18.37,19.86Z"/></svg>