<svg xmlns="http://www.w3.org/2000/svg" viewBox="0 0 24 24"><path d="M15.896,8.921c-0.406-2.218-2.083-4.071-4.251-4.691c-1.59-0.455-3.44-0.222-4.885,0.572C4.162,6.23,3.354,9.925,4.551,12.509c0.812,1.753,2.468,3.039,4.369,3.387C8.967,15.904,9,15.943,9,15.99v3.91C9,19.955,9.045,20,9.1,20h10.8c0.055,0,0.1-0.045,0.1-0.1V9.1C20,9.045,19.955,9,19.9,9h-3.91C15.943,9,15.904,8.967,15.896,8.921z M7.139,7.168c0.914-0.925,2.279-1.361,3.633-1.093c1.442,0.285,2.632,1.386,3.049,2.792C13.84,8.932,13.789,9,13.721,9H9.1C9.045,9,9,9.045,9,9.1v4.621c0,0.068-0.068,0.119-0.132,0.1c-2.045-0.605-3.249-2.973-2.684-5.001C6.364,8.172,6.699,7.614,7.139,7.168z M13.821,11.133c-0.384,1.291-1.397,2.304-2.688,2.687C11.068,13.84,11,13.788,11,13.72V11.1c0-0.055,0.045-0.1,0.1-0.1h2.62C13.788,11,13.84,11.068,13.821,11.133z M17.9,18h-6.8c-0.055,0-0.1-0.045-0.1-0.1v-1.91c0-0.047,0.033-0.086,0.079-0.094c2.443-0.446,4.37-2.373,4.816-4.816C15.904,11.033,15.943,11,15.99,11h1.91c0.055,0,0.1,0.045,0.1,0.1v6.8C18,17.955,17.955,18,17.9,18z"/></svg>