<svg xmlns="http://www.w3.org/2000/svg" viewBox="0 0 24 24"><path d="M19.54,9.11,17.85,7.83h0L12,3.36,6.25,7.66h0L4.65,8.85a1.5,1.5,0,0,0-.51,1.07v9.33a1.39,1.39,0,0,0,1.39,1.39H18.45a1.38,1.38,0,0,0,1.38-1.39V9.92A1,1,0,0,0,19.54,9.11Zm-2.76-1,1.51,1.17-1.51,1.5ZM12.09,4.52l4.06,3.14H7.91Zm3.69,4.14v3.15l-3.69,3.7L8.25,11.75V8.66ZM7.25,8.15v2.62L5.74,9.28Zm11.66,11.1a.46.46,0,0,1-.46.46H5.53a.46.46,0,0,1-.47-.46V9.9L9.9,14.7,6.41,18.16l.7.71,3.48-3.48,1.5,1.48,1.49-1.48,3.48,3.48.71-.71L14.28,14.7l4.63-4.61Z"/></svg>