<svg xmlns="http://www.w3.org/2000/svg" viewBox="0 0 24 24"><path d="M18.9,4H5.1C5.045,4,5,4.045,5,4.1v1.856C5,5.984,5.012,6.011,5.032,6.03l6.786,6.21c0.045,0.041,0.043,0.112-0.004,0.151L5.036,17.97C5.013,17.989,5,18.017,5,18.047V19.9C5,19.955,5.045,20,5.1,20h13.8c0.055,0,0.1-0.045,0.1-0.1v-1.8c0-0.055-0.045-0.1-0.1-0.1H8.274c-0.093,0-0.136-0.116-0.064-0.176l6.498-5.48l-0.025-0.025l0.025-0.025l-6.523-6.12C8.118,6.111,8.162,6,8.253,6H18.9C18.955,6,19,5.955,19,5.9V4.1C19,4.045,18.955,4,18.9,4z"/></svg>