<svg xmlns="http://www.w3.org/2000/svg" viewBox="0 0 24 24"><path d="M21,18.1c0-0.055-0.045-0.1-0.1-0.1h-2.293l2.308-2.308c0.039-0.039,0.039-0.102,0-0.141L9.919,4.555c-0.039-0.039-0.102-0.039-0.141,0l-6.541,6.541c-0.039,0.039-0.039,0.102,0,0.141l6.592,6.592C9.892,17.892,9.848,18,9.759,18H3.1C3.045,18,3,18.045,3,18.1v1.8C3,19.955,3.045,20,3.1,20h17.8c0.055,0,0.1-0.045,0.1-0.1V18.1z M6.207,11.096l3.571-3.571c0.039-0.039,0.102-0.039,0.141,0l3.571,3.571c0.039,0.039,0.039,0.102,0,0.141l-3.571,3.571c-0.039,0.039-0.102,0.039-0.141,0l-3.571-3.571C6.168,11.198,6.168,11.135,6.207,11.096z"/></svg>