<svg xmlns="http://www.w3.org/2000/svg" viewBox="0 0 24 24"><path d="M17.54,14.032c-0.019-0.023-0.047-0.036-0.077-0.036L6.582,14l-0.457-0.457l7.462-6.396c0.042-0.036,0.047-0.099,0.011-0.141l-2.953-3.429c-0.036-0.042-0.099-0.047-0.141-0.011L9.496,4.434C9.454,4.47,9.45,4.533,9.486,4.575l1.953,2.267c0.036,0.042,0.031,0.105-0.011,0.141l-7.47,6.404c-0.044,0.038-0.047,0.105-0.006,0.147l7.437,7.437c0.037,0.037,0.095,0.039,0.135,0.006l6.89-5.741c0.042-0.035,0.048-0.098,0.013-0.141L17.54,14.032z M19.5,17.309c-0.206-0.412-0.793-0.412-0.999,0c0,0-1.506,3.186,0.5,3.186S19.5,17.309,19.5,17.309z"/></svg>