<svg xmlns="http://www.w3.org/2000/svg" viewBox="0 0 24 24"><path d="M16.455,14.541c-0.033-0.033-0.037-0.083-0.011-0.122C17.11,13.425,17.5,12.255,17.5,11c0-3.584-3.141-6.5-7-6.5s-7,2.916-7,6.5s3.141,6.5,7,6.5c1.696,0,3.251-0.566,4.464-1.502c0.039-0.03,0.093-0.027,0.127,0.008l4.881,4.881c0.039,0.039,0.102,0.039,0.141,0l1.273-1.273c0.039-0.039,0.039-0.102,0-0.141L16.455,14.541z M10.5,15.875c-2.895,0-5.25-2.187-5.25-4.875s2.355-4.875,5.25-4.875S15.75,8.312,15.75,11S13.395,15.875,10.5,15.875z"/></svg>