<svg xmlns="http://www.w3.org/2000/svg" viewBox="0 0 24 24"><path d="M8.577,17.167l2.051-8.162h1.913l0.479-1.901H11.11l0.202-0.805c0.182-0.723,0.318-0.785,0.936-0.785c0.176,0,0.497-0.003,0.686,0.029l0.458,0.08l0.5-1.994L13.35,3.545C13.068,3.501,12.912,3.5,12.598,3.5c-1.803,0-2.797,0.759-3.225,2.461L9.086,7.104H7.695L7.217,9.005h1.393l-2.05,8.162H8.577z M11.617,9.765l1.803,3.461l-4.098,3.941h2.485l2.426-2.396l1.234,2.396h2.178l-1.995-3.743l3.776-3.659h-2.479l-2.118,2.088l-1.056-2.088H11.617z M4,19v2h16v-2H4z"/></svg>