<svg xmlns="http://www.w3.org/2000/svg" viewBox="0 0 24 24"><path d="M12,3c-4.971,0-9,4.029-9,9c0,4.971,4.029,9,9,9s9-4.029,9-9C21,7.029,16.971,3,12,3z M8.281,5.846c0.04-0.025,0.094-0.018,0.127,0.016l1.855,1.855c0.049,0.049,0.032,0.13-0.032,0.157c-1.057,0.455-1.902,1.3-2.356,2.356c-0.028,0.064-0.108,0.081-0.157,0.032L5.862,8.407C5.828,8.374,5.822,8.321,5.846,8.28C6.45,7.286,7.286,6.45,8.281,5.846z M10.262,16.283l-1.855,1.855c-0.033,0.033-0.087,0.04-0.127,0.016c-0.995-0.604-1.831-1.439-2.434-2.434c-0.024-0.04-0.018-0.094,0.016-0.127l1.855-1.855c0.049-0.049,0.13-0.032,0.157,0.032c0.455,1.057,1.3,1.902,2.357,2.357C10.294,16.154,10.312,16.234,10.262,16.283z M9,12c0-1.657,1.343-3,3-3s3,1.343,3,3s-1.343,3-3,3S9,13.657,9,12z M15.719,18.154c-0.04,0.024-0.094,0.018-0.127-0.016l-1.855-1.855c-0.049-0.049-0.032-0.13,0.032-0.157c1.057-0.455,1.902-1.3,2.357-2.357c0.028-0.064,0.108-0.081,0.157-0.032l1.855,1.855c0.033,0.033,0.04,0.087,0.016,0.127C17.55,16.714,16.714,17.55,15.719,18.154z M18.138,8.407l-1.855,1.855c-0.049,0.049-0.13,0.032-0.157-0.032c-0.455-1.057-1.3-1.902-2.356-2.356c-0.064-0.028-0.081-0.108-0.032-0.157l1.855-1.855c0.033-0.033,0.087-0.04,0.127-0.016c0.995,0.604,1.831,1.439,2.434,2.434C18.178,8.321,18.172,8.374,18.138,8.407z"/></svg>