<svg xmlns="http://www.w3.org/2000/svg" viewBox="0 0 24 24"><path d="M16.586,5l-2.297,2.297c-0.025,0.025-0.061,0.034-0.095,0.025C13.492,7.124,12.76,7,12,7c-4.687,0-8.276,4.394-8.707,4.944c-0.028,0.036-0.028,0.076,0,0.112c0.233,0.296,1.384,1.704,3.128,2.942c0.05,0.035,0.058,0.107,0.015,0.151L4,17.586c-0.039,0.039-0.039,0.102,0,0.141L5.272,19c0.039,0.039,0.102,0.039,0.141,0L18,6.414c0.039-0.039,0.039-0.102,0-0.141L16.728,5C16.689,4.961,16.625,4.961,16.586,5z M12.532,9.054C12.359,9.023,12.182,9,12,9c-1.657,0-3,1.343-3,3c0,0.182,0.023,0.359,0.054,0.532l-0.807,0.807C8.096,12.919,8,12.472,8,12c0-2.209,1.791-4,4-4c0.472,0,0.919,0.096,1.339,0.247L12.532,9.054z M12,15c1.657,0,3-1.343,3-3c0-0.182-0.023-0.359-0.054-0.532l-3.479,3.479C11.641,14.977,11.818,15,12,15z M17.462,8.952l-1.666,1.666c-0.026,0.026-0.035,0.064-0.023,0.099C15.912,11.121,16,11.549,16,12c0,2.209-1.791,4-4,4c-0.472,0-0.919-0.096-1.339-0.247L9.755,16.66C10.467,16.867,11.216,17,12,17c4.681,0,8.485-4.382,8.952-4.941c0.031-0.037,0.031-0.08,0-0.117c-0.256-0.305-1.512-1.751-3.359-3.001C17.552,8.913,17.496,8.918,17.462,8.952z"/></svg>