<svg xmlns="http://www.w3.org/2000/svg" viewBox="0 0 24 24"><path d="M12.907,15.455l-3.894-1.894c-0.052,0.018-0.081,0.028-0.134,0.046L8.051,15.3l1.019,0.495l-1.495,3.059c-0.032,0.066,0.016,0.143,0.089,0.144l2.203,0.007c0.092,0,0.176-0.052,0.216-0.134l1.023-2.085l1.019,0.495l0.828-1.693C12.935,15.536,12.925,15.507,12.907,15.455z M12.882,5.354l-3.42,7.055c-0.024,0.05-0.003,0.11,0.046,0.134l3.894,1.894c0.05,0.024,0.11,0.003,0.134-0.046l3.42-7.055c0.024-0.05,0.003-0.11-0.046-0.134l-3.894-1.894C12.966,5.283,12.906,5.304,12.882,5.354z"/></svg>