<svg xmlns="http://www.w3.org/2000/svg" viewBox="0 0 24 24"><path d="M9.1,21h5.8c0.055,0,0.1-0.045,0.1-0.1v-1.8c0-0.055-0.045-0.1-0.1-0.1H9.1C9.045,19,9,19.045,9,19.1v1.8C9,20.955,9.045,21,9.1,21z M9.1,18h5.8c0.055,0,0.1-0.045,0.1-0.1v-1.8c0-0.055-0.045-0.1-0.1-0.1H9.1C9.045,16,9,16.045,9,16.1v1.8C9,17.955,9.045,18,9.1,18z M7.791,4.771c-1.317,1.291-2.066,3.175-1.703,5.262C6.391,11.768,7.477,13.309,9,14.191V15h6v-0.809c1.792-1.038,3-2.971,3-5.191c0-2.185-1.227-4.241-3.149-5.281C12.355,2.369,9.561,3.035,7.791,4.771z"/></svg>