<svg xmlns="http://www.w3.org/2000/svg" viewBox="0 0 24 24"><path d="M6.091,16.849C6.051,16.915,6.099,17,6.177,17H10h2h5.806c0.081,0,0.129-0.092,0.081-0.158l-4.798-6.718c-0.042-0.059-0.13-0.055-0.167,0.007l-2.436,4.06c-0.039,0.065-0.133,0.065-0.171,0l-1.229-2.047c-0.039-0.065-0.133-0.065-0.171,0L6.091,16.849z"/><path d="M19,3H5H3.1C3.045,3,3,3.045,3,3.1V5v14v1.9C3,20.955,3.045,21,3.1,21H5h14h1.9c0.055,0,0.1-0.045,0.1-0.1V19V5V3.1C21,3.045,20.955,3,20.9,3H19z M18.9,19H5.1C5.045,19,5,18.955,5,18.9V5.1C5,5.045,5.045,5,5.1,5h13.8C18.955,5,19,5.045,19,5.1v13.8C19,18.955,18.955,19,18.9,19z"/></svg>