<svg xmlns="http://www.w3.org/2000/svg" viewBox="0 0 24 24"><path d="M3.1,19h17.8c0.055,0,0.1-0.045,0.1-0.1v-1.8c0-0.055-0.045-0.1-0.1-0.1H3.1C3.045,17,3,17.045,3,17.1v1.8C3,18.955,3.045,19,3.1,19z"/><path d="M3.107,12.08l3.733,2.8C6.906,14.929,7,14.882,7,14.8V9.2c0-0.082-0.094-0.129-0.16-0.08l-3.733,2.8C3.053,11.96,3.053,12.04,3.107,12.08z"/><path d="M9.1,15h11.8c0.055,0,0.1-0.045,0.1-0.1v-1.8c0-0.055-0.045-0.1-0.1-0.1H9.1C9.045,13,9,13.045,9,13.1v1.8C9,14.955,9.045,15,9.1,15z"/><path d="M9.1,11h11.8c0.055,0,0.1-0.045,0.1-0.1V9.1C21,9.045,20.955,9,20.9,9H9.1C9.045,9,9,9.045,9,9.1v1.8C9,10.955,9.045,11,9.1,11z"/><path d="M3,5.1v1.8C3,6.955,3.045,7,3.1,7h17.8C20.955,7,21,6.955,21,6.9V5.1C21,5.045,20.955,5,20.9,5H3.1C3.045,5,3,5.045,3,5.1z"/></svg>