<svg xmlns="http://www.w3.org/2000/svg" viewBox="0 0 24 24"><path d="M3,5.1v1.8C3,6.955,3.045,7,3.1,7h17.8C20.955,7,21,6.955,21,6.9V5.1C21,5.045,20.955,5,20.9,5H3.1C3.045,5,3,5.045,3,5.1z M3.1,19h17.8c0.055,0,0.1-0.045,0.1-0.1v-1.8c0-0.055-0.045-0.1-0.1-0.1H3.1C3.045,17,3,17.045,3,17.1v1.8C3,18.955,3.045,19,3.1,19z M9.1,15h11.8c0.055,0,0.1-0.045,0.1-0.1v-1.8c0-0.055-0.045-0.1-0.1-0.1H9.1C9.045,13,9,13.045,9,13.1v1.8C9,14.955,9.045,15,9.1,15z M9.1,11h11.8c0.055,0,0.1-0.045,0.1-0.1V9.1C21,9.045,20.955,9,20.9,9H9.1C9.045,9,9,9.045,9,9.1v1.8C9,10.955,9.045,11,9.1,11z M3,9.2v5.6c0,0.082,0.094,0.129,0.16,0.08l3.733-2.8c0.053-0.04,0.053-0.12,0-0.16L3.16,9.12C3.094,9.071,3,9.118,3,9.2z"/></svg>