<svg xmlns="http://www.w3.org/2000/svg" viewBox="0 0 24 24"><path d="M6.627,9.174c0.619-0.276,1.322-0.177,1.985-0.176C9.365,8.998,10.119,8.999,10.873,9c0.03,0,0.063-0.001,0.087-0.019C10.996,8.955,11,8.903,11,8.859C11,8.292,11,7.725,11,7.158c0-0.031,0-0.064-0.017-0.091c-0.03-0.048-0.096-0.054-0.153-0.055C9.843,6.997,8.855,6.982,7.867,6.966c-0.68-0.011-1.429-0.049-2.2,0.326c-1.309,0.637-2.009,1.808-2.417,3.11c-0.344,1.099-0.335,2.293,0.076,3.373c0.381,0.999,1.086,1.863,1.986,2.439C6.111,16.726,7.051,17,8,17h2.9c0.055,0,0.1-0.045,0.1-0.1v-1.8c0-0.055-0.045-0.1-0.1-0.1c0,0-2.899,0-2.9,0c-1.136,0-2.199-0.667-2.697-1.687c-0.36-0.737-0.362-1.583-0.101-2.351C5.449,10.234,5.91,9.493,6.627,9.174z M18.257,7.151c-0.336-0.118-0.697-0.165-1.081-0.164C15.842,6.994,14.508,7,13.174,7.006c-0.053,0-0.113,0.004-0.147,0.044C13,7.082,12.999,7.128,12.999,7.171C12.999,7.735,13,8.299,13.001,8.863c0,0.042,0.003,0.09,0.035,0.117c0.025,0.02,0.06,0.021,0.093,0.021C14.063,9,14.997,8.999,15.931,8.998c0.694-0.001,1.461-0.1,1.993,0.443c0.85,0.87,1.31,2.285,0.936,3.466c-0.026,0.081-0.055,0.16-0.087,0.238C18.313,14.255,17.201,15,16,15h-2.9c-0.055,0-0.1,0.045-0.1,0.1v1.8c0,0.055,0.045,0.1,0.1,0.1c0,0,2.9,0,2.9,0c1.179,0,2.334-0.425,3.232-1.188c0.889-0.755,1.726-1.937,1.747-3.77c0.019-1.701-0.392-2.608-1.439-3.91c-0.132-0.165-0.274-0.323-0.429-0.466C18.849,7.425,18.564,7.259,18.257,7.151z M8.1,13h7.8c0.055,0,0.1-0.045,0.1-0.1v-1.8c0-0.055-0.045-0.1-0.1-0.1H8.1C8.045,11,8,11.045,8,11.1v1.8C8,12.955,8.045,13,8.1,13z"/></svg>