<svg xmlns="http://www.w3.org/2000/svg" viewBox="0 0 24 24"><path d="M19,6.937V5.063C19,5.028,18.972,5,18.937,5H9.063C9.028,5,9,5.028,9,5.063v1.874C9,6.972,9.028,7,9.063,7H12.3c0.042,0,0.073,0.041,0.06,0.081l-2.731,8.874C9.621,15.982,9.596,16,9.569,16H6.063C6.028,16,6,16.028,6,16.063v1.874C6,17.972,6.028,18,6.063,18h9.874C15.972,18,16,17.972,16,17.937v-1.874C16,16.028,15.972,16,15.937,16H12.7c-0.042,0-0.073-0.041-0.06-0.081l2.731-8.874C15.379,7.018,15.404,7,15.431,7h3.506C18.972,7,19,6.972,19,6.937z"/></svg>