<svg xmlns="http://www.w3.org/2000/svg" viewBox="0 0 24 24"><path d="M5.1,9h1.8C6.955,9,7,8.955,7,8.9V7.1C7,7.045,6.955,7,6.9,7H5.1C5.045,7,5,7.045,5,7.1v1.8C5,8.955,5.045,9,5.1,9z M9.9,7H8.1C8.045,7,8,7.045,8,7.1v1.8C8,8.955,8.045,9,8.1,9h1.8C9.955,9,10,8.955,10,8.9V7.1C10,7.045,9.955,7,9.9,7z M12.9,7h-1.8C11.045,7,11,7.045,11,7.1v1.8C11,8.955,11.045,9,11.1,9h1.8C12.955,9,13,8.955,13,8.9V7.1C13,7.045,12.955,7,12.9,7z M14.1,9h1.8C15.955,9,16,8.955,16,8.9V7.1C16,7.045,15.955,7,15.9,7h-1.8C14.045,7,14,7.045,14,7.1v1.8C14,8.955,14.045,9,14.1,9z M17,7.1v1.8C17,8.955,17.045,9,17.1,9h1.8C18.955,9,19,8.955,19,8.9V7.1C19,7.045,18.955,7,18.9,7h-1.8C17.045,7,17,7.045,17,7.1z M5.1,12h1.8C6.955,12,7,11.955,7,11.9v-1.8C7,10.045,6.955,10,6.9,10H5.1C5.045,10,5,10.045,5,10.1v1.8C5,11.955,5.045,12,5.1,12z M9.9,10H8.1C8.045,10,8,10.045,8,10.1v1.8C8,11.955,8.045,12,8.1,12h1.8c0.055,0,0.1-0.045,0.1-0.1v-1.8C10,10.045,9.955,10,9.9,10z M12.9,10h-1.8c-0.055,0-0.1,0.045-0.1,0.1v1.8c0,0.055,0.045,0.1,0.1,0.1h1.8c0.055,0,0.1-0.045,0.1-0.1v-1.8C13,10.045,12.955,10,12.9,10z M14.1,12h1.8c0.055,0,0.1-0.045,0.1-0.1v-1.8c0-0.055-0.045-0.1-0.1-0.1h-1.8c-0.055,0-0.1,0.045-0.1,0.1v1.8C14,11.955,14.045,12,14.1,12z M17.1,12h1.8c0.055,0,0.1-0.045,0.1-0.1v-1.8c0-0.055-0.045-0.1-0.1-0.1h-1.8c-0.055,0-0.1,0.045-0.1,0.1v1.8C17,11.955,17.045,12,17.1,12z M5.1,15h1.8C6.955,15,7,14.955,7,14.9v-1.8C7,13.045,6.955,13,6.9,13H5.1C5.045,13,5,13.045,5,13.1v1.8C5,14.955,5.045,15,5.1,15z M9.9,13H8.1C8.045,13,8,13.045,8,13.1v1.8C8,14.955,8.045,15,8.1,15h1.8c0.055,0,0.1-0.045,0.1-0.1v-1.8C10,13.045,9.955,13,9.9,13z M12.9,13h-1.8c-0.055,0-0.1,0.045-0.1,0.1v1.8c0,0.055,0.045,0.1,0.1,0.1h1.8c0.055,0,0.1-0.045,0.1-0.1v-1.8C13,13.045,12.955,13,12.9,13z M8.1,18h7.8c0.055,0,0.1-0.045,0.1-0.1v-1.8c0-0.055-0.045-0.1-0.1-0.1H8.1C8.045,16,8,16.045,8,16.1v1.8C8,17.955,8.045,18,8.1,18z M14.1,15h1.8c0.055,0,0.1-0.045,0.1-0.1v-1.8c0-0.055-0.045-0.1-0.1-0.1h-1.8c-0.055,0-0.1,0.045-0.1,0.1v1.8C14,14.955,14.045,15,14.1,15z M17.1,15h1.8c0.055,0,0.1-0.045,0.1-0.1v-1.8c0-0.055-0.045-0.1-0.1-0.1h-1.8c-0.055,0-0.1,0.045-0.1,0.1v1.8C17,14.955,17.045,15,17.1,15z"/></svg>