<svg xmlns="http://www.w3.org/2000/svg" viewBox="0 0 24 24"><path d="M10.029,6.429L6.671,3.071c-0.039-0.039-0.102-0.039-0.141,0L3.171,6.429C3.108,6.492,3.152,6.6,3.241,6.6H5.6c0.055,0,0.1,0.045,0.1,0.1v10.6c0,0.055-0.045,0.1-0.1,0.1H3.241c-0.089,0-0.134,0.108-0.071,0.171l3.359,3.359c0.039,0.039,0.102,0.039,0.141,0l3.359-3.359c0.063-0.063,0.018-0.171-0.071-0.171H7.6c-0.055,0-0.1-0.045-0.1-0.1V6.7c0-0.055,0.045-0.1,0.1-0.1h2.359C10.048,6.6,10.092,6.492,10.029,6.429z M13,7.1v1.8C13,8.955,13.045,9,13.1,9h7.8C20.955,9,21,8.955,21,8.9V7.1C21,7.045,20.955,7,20.9,7h-7.8C13.045,7,13,7.045,13,7.1z M13.1,13h7.8c0.055,0,0.1-0.045,0.1-0.1v-1.8c0-0.055-0.045-0.1-0.1-0.1h-7.8c-0.055,0-0.1,0.045-0.1,0.1v1.8C13,12.955,13.045,13,13.1,13z M13.1,17h7.8c0.055,0,0.1-0.045,0.1-0.1v-1.8c0-0.055-0.045-0.1-0.1-0.1h-7.8c-0.055,0-0.1,0.045-0.1,0.1v1.8C13,16.955,13.045,17,13.1,17z"/></svg>