<svg xmlns="http://www.w3.org/2000/svg" viewBox="0 0 24 24"><path d="M3,7.1v1.8C3,8.955,3.045,9,3.1,9h17.8C20.955,9,21,8.955,21,8.9V7.1C21,7.045,20.955,7,20.9,7H3.1C3.045,7,3,7.045,3,7.1z M10.9,11H3.1C3.045,11,3,11.045,3,11.1v1.8C3,12.955,3.045,13,3.1,13h7.8c0.055,0,0.1-0.045,0.1-0.1v-1.8C11,11.045,10.955,11,10.9,11z M3.1,17h1.8C4.955,17,5,16.955,5,16.9v-1.8C5,15.045,4.955,15,4.9,15H3.1C3.045,15,3,15.045,3,15.1v1.8C3,16.955,3.045,17,3.1,17z M7.1,17h1.8C8.955,17,9,16.955,9,16.9v-1.8C9,15.045,8.955,15,8.9,15H7.1C7.045,15,7,15.045,7,15.1v1.8C7,16.955,7.045,17,7.1,17z M11.1,17h1.8c0.055,0,0.1-0.045,0.1-0.1v-1.8c0-0.055-0.045-0.1-0.1-0.1h-1.8c-0.055,0-0.1,0.045-0.1,0.1v1.8C11,16.955,11.045,17,11.1,17z M15.1,17h1.8c0.055,0,0.1-0.045,0.1-0.1v-1.8c0-0.055-0.045-0.1-0.1-0.1h-1.8c-0.055,0-0.1,0.045-0.1,0.1v1.8C15,16.955,15.045,17,15.1,17z M19.1,17h1.8c0.055,0,0.1-0.045,0.1-0.1v-1.8c0-0.055-0.045-0.1-0.1-0.1h-1.8c-0.055,0-0.1,0.045-0.1,0.1v1.8C19,16.955,19.045,17,19.1,17z M13.1,13h7.8c0.055,0,0.1-0.045,0.1-0.1v-1.8c0-0.055-0.045-0.1-0.1-0.1h-7.8c-0.055,0-0.1,0.045-0.1,0.1v1.8C13,12.955,13.045,13,13.1,13z"/></svg>