<svg xmlns="http://www.w3.org/2000/svg" viewBox="0 0 24 24"><path d="M5.243,10.014C4.004,10.014,3,11.018,3,12.257C3,13.496,4.004,14.5,5.243,14.5c1.239,0,2.243-1.004,2.243-2.243C7.486,11.018,6.482,10.014,5.243,10.014z M12.031,10.014c-1.239,0-2.243,1.004-2.243,2.243c0,1.239,1.004,2.243,2.243,2.243s2.243-1.004,2.243-2.243C14.274,11.018,13.27,10.014,12.031,10.014z M18.819,10.014c-1.239,0-2.243,1.004-2.243,2.243c0,1.239,1.004,2.243,2.243,2.243c1.239,0,2.243-1.004,2.243-2.243C21.062,11.018,20.058,10.014,18.819,10.014z"/></svg>