<svg xmlns="http://www.w3.org/2000/svg" viewBox="0 0 24 24"><path d="M3.1,9h1.8C4.955,9,5,8.955,5,8.9V6.1C5,6.045,5.045,6,5.1,6h5.8C10.955,6,11,5.955,11,5.9V4.1C11,4.045,10.955,4,10.9,4H3.1C3.045,4,3,4.045,3,4.1v4.8C3,8.955,3.045,9,3.1,9z M13,4.1v1.8C13,5.955,13.045,6,13.1,6h5.8C18.955,6,19,6.045,19,6.1v2.8C19,8.955,19.045,9,19.1,9h1.8C20.955,9,21,8.955,21,8.9V4.1C21,4.045,20.955,4,20.9,4h-7.8C13.045,4,13,4.045,13,4.1z M18.9,18h-5.8c-0.055,0-0.1,0.045-0.1,0.1v1.8c0,0.055,0.045,0.1,0.1,0.1h7.8c0.055,0,0.1-0.045,0.1-0.1v-4.8c0-0.055-0.045-0.1-0.1-0.1h-1.8c-0.055,0-0.1,0.045-0.1,0.1v2.8C19,17.955,18.955,18,18.9,18z M4.9,15H3.1C3.045,15,3,15.045,3,15.1v4.8C3,19.955,3.045,20,3.1,20h7.8c0.055,0,0.1-0.045,0.1-0.1v-1.8c0-0.055-0.045-0.1-0.1-0.1H5.1C5.045,18,5,17.955,5,17.9v-2.8C5,15.045,4.955,15,4.9,15z M6.9,11H3.1C3.045,11,3,11.045,3,11.1v1.8C3,12.955,3.045,13,3.1,13h3.8C6.955,13,7,13.045,7,13.1v2.659c0,0.089,0.108,0.134,0.171,0.071l3.759-3.759c0.039-0.039,0.039-0.102,0-0.141L7.171,8.171C7.108,8.108,7,8.152,7,8.241V10.9C7,10.955,6.955,11,6.9,11z M16.829,8.171l-3.759,3.759c-0.039,0.039-0.039,0.102,0,0.141l3.759,3.759C16.892,15.892,17,15.848,17,15.759V13.1c0-0.055,0.045-0.1,0.1-0.1h3.8c0.055,0,0.1-0.045,0.1-0.1v-1.8c0-0.055-0.045-0.1-0.1-0.1h-3.8c-0.055,0-0.1-0.045-0.1-0.1V8.241C17,8.152,16.892,8.108,16.829,8.171z"/></svg>