<svg xmlns="http://www.w3.org/2000/svg" viewBox="0 0 24 24"><path d="M5,5h1.9C6.955,5,7,5.045,7,5.1V8h1V4.1C8,4.045,7.955,4,7.9,4H5V5z M5,11h1.612L5,13v1h3v-1H6.388L8,11v-1H5V11z M5,17h2v1H6v1H5v1h2.9C7.955,20,8,19.955,8,19.9v-3.8C8,16.045,7.955,16,7.9,16H5V17z M10,5.1v1.8C10,6.955,10.045,7,10.1,7h8.8C18.955,7,19,6.955,19,6.9V5.1C19,5.045,18.955,5,18.9,5h-8.8C10.045,5,10,5.045,10,5.1z M10.1,13h8.8c0.055,0,0.1-0.045,0.1-0.1v-1.8c0-0.055-0.045-0.1-0.1-0.1h-8.8c-0.055,0-0.1,0.045-0.1,0.1v1.8C10,12.955,10.045,13,10.1,13z M10.1,19h8.8c0.055,0,0.1-0.045,0.1-0.1v-1.8c0-0.055-0.045-0.1-0.1-0.1h-8.8c-0.055,0-0.1,0.045-0.1,0.1v1.8C10,18.955,10.045,19,10.1,19z"/></svg>