<svg xmlns="http://www.w3.org/2000/svg" viewBox="0 0 24 24"><path d="M15,4.9V3.1C15,3.045,14.955,3,14.9,3H9.1C9.045,3,9,3.045,9,3.1v1.8C9,4.955,8.955,5,8.9,5H5.1C5.045,5,5,5.045,5,5.1v14.8C5,19.955,5.045,20,5.1,20h13.8c0.055,0,0.1-0.045,0.1-0.1V5.1C19,5.045,18.955,5,18.9,5h-3.8C15.045,5,15,4.955,15,4.9z M10,4h4v1h-4V4z M16.9,18H7.1C7.045,18,7,17.955,7,17.9V7.1C7,7.045,7.045,7,7.1,7h1.8C8.955,7,9,7.045,9,7.1v2.8C9,9.955,9.045,10,9.1,10h5.8c0.055,0,0.1-0.045,0.1-0.1V7.1C15,7.045,15.045,7,15.1,7h1.8C16.955,7,17,7.045,17,7.1v10.8C17,17.955,16.955,18,16.9,18z"/></svg>