<svg xmlns="http://www.w3.org/2000/svg" viewBox="0 0 24 24"><path d="M19.121,14.464L17,16.586l-2.121-2.122l-1.415,1.415L15.586,18l-2.122,2.121l1.415,1.415L17,19.414l2.121,2.122l1.415-1.415L18.414,18l2.122-2.121L19.121,14.464z M10.9,15c0,0-2.899,0-2.9,0c-1.136,0-2.199-0.667-2.697-1.687c-0.36-0.737-0.362-1.583-0.101-2.352c0.247-0.728,0.708-1.468,1.425-1.787c0.619-0.276,1.322-0.177,1.985-0.176c0.753,0,1.507,0.001,2.261,0.002c0.03,0,0.063-0.001,0.087-0.019C10.996,8.955,11,8.903,11,8.859V7.158c0-0.031,0-0.064-0.017-0.091c-0.03-0.048-0.096-0.054-0.152-0.055c-0.988-0.015-1.976-0.03-2.964-0.046c-0.68-0.011-1.43-0.049-2.2,0.326C4.358,7.929,3.658,9.1,3.25,10.402c-0.344,1.099-0.335,2.293,0.076,3.373c0.381,0.999,1.086,1.863,1.986,2.439C6.111,16.726,7.051,17,8,17h2.9c0.055,0,0.1-0.045,0.1-0.1v-1.8C11,15.045,10.955,15,10.9,15z M20.626,9.852c-0.451-1.106-1.266-2.216-2.384-2.662c-0.329-0.131-0.685-0.205-1.066-0.203C15.842,6.994,14.508,7,13.174,7.006c-0.053,0-0.113,0.004-0.147,0.044C13,7.082,12.999,7.128,12.999,7.171c0,0.564,0.001,1.128,0.002,1.692c0,0.042,0.003,0.09,0.035,0.117c0.025,0.02,0.06,0.021,0.093,0.021C14.063,9,14.997,8.999,15.931,8.998c0.694-0.001,1.461-0.1,1.993,0.443c0.85,0.87,1.31,2.285,0.936,3.466c-0.01,0.031-0.023,0.062-0.034,0.093h2.05c0.058-0.299,0.1-0.613,0.104-0.958C20.988,11.296,20.909,10.547,20.626,9.852z M8,11.1v1.8C8,12.955,8.045,13,8.1,13h7.8c0.055,0,0.1-0.045,0.1-0.1v-1.8c0-0.055-0.045-0.1-0.1-0.1H8.1C8.045,11,8,11.045,8,11.1z"/></svg>