<svg xmlns="http://www.w3.org/2000/svg" viewBox="0 0 24 24"><path d="M8,19h1v-3H8V19z M8,10h8V9H8V10z M8,12h8v-1H8V12z M19.961,7.012l-3.872-2.991C16.072,4.007,16.05,4,16.028,4H4.1C4.045,4,4,4.045,4,4.1v15.8C4,19.955,4.045,20,4.1,20h2.8C6.955,20,7,19.955,7,19.9v-4.8C7,15.045,7.045,15,7.1,15h9.8c0.055,0,0.1,0.045,0.1,0.1v4.8c0,0.055,0.045,0.1,0.1,0.1h2.8c0.055,0,0.1-0.045,0.1-0.1V7.091C20,7.06,19.986,7.031,19.961,7.012z M6,7H5V5h1V7z M17,12.9c0,0.055-0.045,0.1-0.1,0.1H7.1C7.045,13,7,12.955,7,12.9V8.1C7,8.045,7.045,8,7.1,8h9.8C16.955,8,17,8.045,17,8.1V12.9z"/></svg>