<svg xmlns="http://www.w3.org/2000/svg" viewBox="0 0 24 24"><path d="M17.91,11c-0.153-0.911-0.509-1.751-1.023-2.473l0.77-0.77l-1.414-1.414l-0.77,0.77C14.75,6.599,13.911,6.243,13,6.09V5h-2v1.09c-0.911,0.153-1.75,0.509-2.473,1.023l-0.77-0.77L6.343,7.757l0.77,0.77C6.599,9.249,6.243,10.089,6.09,11H5v2h1.09c0.153,0.911,0.509,1.75,1.023,2.473l-0.77,0.77l1.414,1.414l0.77-0.77c0.722,0.514,1.562,0.87,2.473,1.023V19h2v-1.09c0.911-0.153,1.751-0.509,2.473-1.023l0.77,0.77l1.414-1.414l-0.77-0.77c0.514-0.722,0.87-1.562,1.023-2.473H19v-2H17.91z M12,15c-1.657,0-3-1.343-3-3s1.343-3,3-3s3,1.343,3,3S13.657,15,12,15z"/></svg>