<svg xmlns="http://www.w3.org/2000/svg" viewBox="0 0 24 24"><path d="M19.9,14h-1.8c-0.055,0-0.1,0.045-0.1,0.1v3.8c0,0.055-0.045,0.1-0.1,0.1H5.1C5.045,18,5,17.955,5,17.9V6.1C5,6.045,5.045,6,5.1,6h5.8C10.955,6,11,5.955,11,5.9V4.1C11,4.045,10.955,4,10.9,4H3.1C3.045,4,3,4.045,3,4.1v15.8C3,19.955,3.045,20,3.1,20h16.8c0.055,0,0.1-0.045,0.1-0.1v-5.8C20,14.045,19.955,14,19.9,14z M17.312,4.176c-0.276-0.276-0.8-0.388-0.8,0.288c0,0.231-0.012,2.257-0.012,2.257c-6.149,0.021-8.613,2.755-9.596,5.075c-0.831,1.962,0.489,5.304,0.489,5.304l0.104-1.052c0.305-3.089,2.835-6.382,9.002-6.51v2.108c-0.006,0.341,0.516,0.398,0.694,0.229c0.212-0.2,3.808-3.486,3.808-3.486c0.14-0.143,0.14-0.372,0-0.514L17.312,4.176z"/></svg>