<svg xmlns="http://www.w3.org/2000/svg" viewBox="0 0 24 24"><path d="M13,18.9v-1.8c0-0.055-0.045-0.1-0.1-0.1H3.1C3.045,17,3,17.045,3,17.1v1.8C3,18.955,3.045,19,3.1,19h9.8C12.955,19,13,18.955,13,18.9z M3,13.1v1.8C3,14.955,3.045,15,3.1,15h6.8c0.055,0,0.1-0.045,0.1-0.1v-1.8c0-0.055-0.045-0.1-0.1-0.1H3.1C3.045,13,3,13.045,3,13.1z M3,9.1v1.8C3,10.955,3.045,11,3.1,11h4.8C7.955,11,8,10.955,8,10.9V9.1C8,9.045,7.955,9,7.9,9H3.1C3.045,9,3,9.045,3,9.1z M3,5.1v1.8C3,6.955,3.045,7,3.1,7h1.8C4.955,7,5,6.955,5,6.9V5.1C5,5.045,4.955,5,4.9,5H3.1C3.045,5,3,5.045,3,5.1z M17.071,18.929l3.759-3.759C20.892,15.108,20.848,15,20.759,15H18.1c-0.055,0-0.1-0.045-0.1-0.1V5.1C18,5.045,17.955,5,17.9,5h-1.8C16.045,5,16,5.045,16,5.1v9.8c0,0.055-0.045,0.1-0.1,0.1h-2.659c-0.089,0-0.134,0.108-0.071,0.171l3.759,3.759C16.968,18.968,17.032,18.968,17.071,18.929z"/></svg>