<svg xmlns="http://www.w3.org/2000/svg" viewBox="0 0 24 24"><path d="M18.504,17c0.875-1.282,1.354-2.719,1.354-4.143C19.857,8.524,16.333,5,12,5s-7.857,3.524-7.857,7.857c0,1.429,0.477,2.865,1.348,4.143H3.1C3.045,17,3,17.045,3,17.1v1.8C3,18.955,3.045,19,3.1,19h5.8C8.955,19,9,18.955,9,18.9V17H8.113c-1.252-1.197-1.971-2.688-1.971-4.143C6.143,9.628,8.771,7,12,7s5.857,2.628,5.857,5.857c0,1.445-0.719,2.935-1.972,4.143H15v1.9c0,0.055,0.045,0.1,0.1,0.1h5.8c0.055,0,0.1-0.045,0.1-0.1v-1.8c0-0.055-0.045-0.1-0.1-0.1H18.504z"/></svg>