<svg xmlns="http://www.w3.org/2000/svg" viewBox="0 0 24 24"><path d="M18.01,20.613l-5.552-2.919c-0.029-0.015-0.064-0.015-0.093,0L6.81,20.613c-0.073,0.039-0.159-0.024-0.145-0.105l1.062-6.183c0.006-0.032-0.005-0.066-0.029-0.089L3.205,9.857C3.145,9.799,3.178,9.698,3.26,9.686l6.209-0.903C9.502,8.779,9.53,8.758,9.545,8.729l2.777-5.626c0.037-0.074,0.143-0.074,0.179,0l2.777,5.626c0.015,0.03,0.043,0.05,0.075,0.055l6.209,0.903c0.082,0.012,0.115,0.113,0.055,0.171l-4.494,4.379c-0.024,0.023-0.034,0.056-0.029,0.089l1.06,6.183C18.169,20.589,18.083,20.651,18.01,20.613z"/></svg>