<svg xmlns="http://www.w3.org/2000/svg" viewBox="0 0 24 24"><path d="M20.89,11.4,3.1,11.57a.1.1,0,0,0-.1.1v1.8a.1.1,0,0,0,.1.1l17.8-.17a.1.1,0,0,0,.1-.1V11.5A.11.11,0,0,0,20.89,11.4Zm-6.14-.94c-.34-.12-.72-.22-1.17-.33l-2.72-.59C10,9.34,9.64,9,9.63,8.41c0-.84.85-1.37,2.27-1.39s2.41.62,2.42,1.74V9l2.89,0a.1.1,0,0,0,.1-.11,5.2,5.2,0,0,0-.79-2.46C15.65,5.12,14.12,4.5,12,4.52,8.57,4.55,6.6,6.11,6.63,8.7a3.81,3.81,0,0,0,.44,1.78.11.11,0,0,0,.09,0Zm-.82,4a1.17,1.17,0,0,1,.6,1c0,.94-.93,1.51-2.47,1.53-1.79,0-2.66-.63-2.76-2.08a.11.11,0,0,0-.1-.1l-2.81,0a.11.11,0,0,0-.1.11c.1,2.92,2.19,4.58,5.75,4.54s5.58-1.75,5.55-4.52a4.34,4.34,0,0,0-.05-.53Z"/></svg>