<svg xmlns="http://www.w3.org/2000/svg" viewBox="0 0 24 24"><path d="M17.923,8.584C11.094,1.59,5.119,8.766,4.14,10.631c-0.051,0.096,0.074,0.191,0.156,0.12C6.803,8.607,9.69,5.275,16.553,9.923c0.052,0.036,0.063,0.113,0.018,0.158l-1.748,1.748C14.76,11.892,14.804,12,14.893,12H19.9c0.055,0,0.1-0.045,0.1-0.1V6.893c0-0.089-0.108-0.134-0.171-0.071l-1.765,1.765C18.026,8.626,17.962,8.624,17.923,8.584z M7.43,14.642l1.748-1.748c0.063-0.063,0.018-0.171-0.071-0.171H4.1c-0.055,0-0.1,0.045-0.1,0.1v5.007c0,0.089,0.108,0.134,0.171,0.071l1.765-1.765c0.039-0.039,0.103-0.036,0.141,0.003c6.855,7.016,12.849-0.844,13.794-2.776c0.048-0.097-0.077-0.19-0.159-0.118c-2.508,2.193-5.394,6.202-12.264,1.556C7.395,14.765,7.385,14.687,7.43,14.642z"/></svg>