<svg xmlns="http://www.w3.org/2000/svg" viewBox="0 0 24 24"><path d="M9.687,14.337l-0.968-1.851c-0.02-0.039-0.013-0.086,0.018-0.117l2.381-2.381c0.032-0.032,0.081-0.039,0.121-0.016l1.781,1.027c0.039,0.023,0.089,0.016,0.121-0.016l1.763-1.763c0.048-0.048,0.035-0.128-0.025-0.16L5.17,4.034c-0.039-0.02-0.086-0.013-0.117,0.018L3.05,6.055c-0.03,0.03-0.038,0.076-0.019,0.114l4.793,9.94c0.03,0.062,0.112,0.076,0.161,0.027l1.684-1.683C9.7,14.423,9.707,14.375,9.687,14.337z M5.99,6.942l3.314,1.912c0.057,0.033,0.067,0.111,0.021,0.157l-1.512,1.512c-0.048,0.048-0.128,0.035-0.159-0.024L5.852,7.076C5.805,6.987,5.903,6.892,5.99,6.942z M15.514,7.171l1.88,1.88c0.039,0.039,0.039,0.102,0,0.141L6.878,19.707c-0.039,0.039-0.039,0.102,0,0.141l1.273,1.273c0.039,0.039,0.102,0.039,0.141,0l10.515-10.515c0.039-0.039,0.102-0.039,0.141,0l1.88,1.88C20.892,12.549,21,12.505,21,12.415V7.1C21,7.045,20.955,7,20.9,7h-5.315C15.495,7,15.451,7.108,15.514,7.171z"/></svg>