<svg xmlns="http://www.w3.org/2000/svg" viewBox="0 0 24 24"><path d="M9.763,13.407L9.05,15.68c-0.013,0.042-0.052,0.07-0.095,0.07h-2.72c-0.069,0-0.117-0.068-0.094-0.133l4.125-11.81c0.014-0.04,0.052-0.067,0.094-0.067h3.223c0.044,0,0.082,0.028,0.095,0.07l3.753,11.81c0.02,0.064-0.028,0.13-0.095,0.13h-2.847c-0.045,0-0.085-0.03-0.097-0.074l-0.609-2.265c-0.012-0.044-0.051-0.074-0.097-0.074H9.859C9.815,13.337,9.776,13.366,9.763,13.407z M11.807,6.754l-1.315,4.239c-0.02,0.064,0.028,0.13,0.096,0.13h2.453c0.066,0,0.114-0.062,0.097-0.126l-1.137-4.239C11.973,6.661,11.836,6.658,11.807,6.754z"/><path d="M20.9,21H3.1C3.045,21,3,20.955,3,20.9v-2.8C3,18.045,3.045,18,3.1,18h17.8c0.055,0,0.1,0.045,0.1,0.1v2.8C21,20.955,20.955,21,20.9,21z"/></svg>