<svg xmlns="http://www.w3.org/2000/svg" viewBox="0 0 24 24"><path d="M6,18.9V5.1C6,5.045,5.955,5,5.9,5H4.1C4.045,5,4,5.045,4,5.1v13.8C4,18.955,4.045,19,4.1,19h1.8C5.955,19,6,18.955,6,18.9z M20,18.9V5.1C20,5.045,19.955,5,19.9,5h-1.8C18.045,5,18,5.045,18,5.1v13.8c0,0.055,0.045,0.1,0.1,0.1h1.8C19.955,19,20,18.955,20,18.9z M17,11c0-4-3.021-4.979-4-5c-0.36-0.008-5.158-0.001-5.903,0C7.042,6,7,6.045,7,6.1v1.8C7,7.955,7.045,8,7.1,8H13c0.917,0,2,1,2,3c0,3-2.003,3-2.003,3H11.1c-0.055,0-0.1-0.045-0.1-0.1v-2.659c0-0.089-0.108-0.134-0.171-0.071l-3.759,3.759c-0.039,0.039-0.039,0.102,0,0.141l3.759,3.759C10.892,18.892,11,18.848,11,18.759V16.1c0-0.055,0.045-0.1,0.1-0.1h1.886C12.986,16,17,16,17,11z"/></svg>