<svg xmlns="http://www.w3.org/2000/svg" viewBox="0 0 24 24"><path d="M3.1,11h7.8c0.055,0,0.1-0.045,0.1-0.1V9.1C11,9.045,10.955,9,10.9,9H3.1C3.045,9,3,9.045,3,9.1v1.8C3,10.955,3.045,11,3.1,11z"/><path d="M3.1,7h7.8C10.955,7,11,6.955,11,6.9V5.1C11,5.045,10.955,5,10.9,5H3.1C3.045,5,3,5.045,3,5.1v1.8C3,6.955,3.045,7,3.1,7z"/><path d="M3.1,15h7.8c0.055,0,0.1-0.045,0.1-0.1v-1.8c0-0.055-0.045-0.1-0.1-0.1H3.1C3.045,13,3,13.045,3,13.1v1.8C3,14.955,3.045,15,3.1,15z"/><path d="M3.1,19h7.8c0.055,0,0.1-0.045,0.1-0.1v-1.8c0-0.055-0.045-0.1-0.1-0.1H3.1C3.045,17,3,17.045,3,17.1v1.8C3,18.955,3.045,19,3.1,19z"/><path d="M13.1,7h7.8C20.955,7,21,6.955,21,6.9V5.1C21,5.045,20.955,5,20.9,5h-7.8C13.045,5,13,5.045,13,5.1v1.8C13,6.955,13.045,7,13.1,7z"/><path d="M13.1,11h7.8c0.055,0,0.1-0.045,0.1-0.1V9.1C21,9.045,20.955,9,20.9,9h-7.8C13.045,9,13,9.045,13,9.1v1.8C13,10.955,13.045,11,13.1,11z"/><path d="M13.1,19h7.8c0.055,0,0.1-0.045,0.1-0.1v-1.8c0-0.055-0.045-0.1-0.1-0.1h-7.8c-0.055,0-0.1,0.045-0.1,0.1v1.8C13,18.955,13.045,19,13.1,19z"/><path d="M13.1,15h7.8c0.055,0,0.1-0.045,0.1-0.1v-1.8c0-0.055-0.045-0.1-0.1-0.1h-7.8c-0.055,0-0.1,0.045-0.1,0.1v1.8C13,14.955,13.045,15,13.1,15z"/></svg>