<svg xmlns="http://www.w3.org/2000/svg" viewBox="0 0 24 24"><path d="M19.929,11.929l-3.759-3.759C16.108,8.108,16,8.152,16,8.241V10.9c0,0.055-0.045,0.1-0.1,0.1H8.1C8.045,11,8,11.045,8,11.1v1.8C8,12.955,8.045,13,8.1,13h7.8c0.055,0,0.1,0.045,0.1,0.1v2.659c0,0.089,0.108,0.134,0.171,0.071l3.759-3.759C19.968,12.032,19.968,11.968,19.929,11.929z M5.9,5H4.1C4.045,5,4,5.045,4,5.1v13.8C4,18.955,4.045,19,4.1,19h1.8C5.955,19,6,18.955,6,18.9V5.1C6,5.045,5.955,5,5.9,5z M12.1,9h1.8C13.955,9,14,8.955,14,8.9V5.1C14,5.045,13.955,5,13.9,5h-1.8C12.045,5,12,5.045,12,5.1v3.8C12,8.955,12.045,9,12.1,9z M13.9,15h-1.8c-0.055,0-0.1,0.045-0.1,0.1v3.8c0,0.055,0.045,0.1,0.1,0.1h1.8c0.055,0,0.1-0.045,0.1-0.1v-3.8C14,15.045,13.955,15,13.9,15z"/></svg>