<svg xmlns="http://www.w3.org/2000/svg" viewBox="0 0 24 24"><path d="M18.9,5H5.1C5.045,5,5,5.045,5,5.1v13.8C5,18.955,5.045,19,5.1,19h13.8c0.055,0,0.1-0.045,0.1-0.1V5.1C19,5.045,18.955,5,18.9,5z M10.926,16.933l-4.681-4.279c-0.041-0.037-0.044-0.101-0.006-0.141l1.19-1.299c0.036-0.04,0.098-0.044,0.139-0.008l3.289,2.827c0.041,0.035,0.102,0.032,0.139-0.008l5.227-5.654c0.039-0.042,0.104-0.043,0.144-0.003l1.273,1.273c0.038,0.038,0.039,0.099,0.003,0.138l-6.575,7.149C11.03,16.967,10.967,16.97,10.926,16.933z"/></svg>