<svg xmlns="http://www.w3.org/2000/svg" viewBox="0 0 24 24"><path d="M16.9,4C16.955,4,17,4.045,17,4.1V13c0,1.57-1.05,2.73-1.984,3.422c-0.953,0.692-2.312,0.947-3.733,0.947c-1.44,0-2.71-0.374-3.664-1.065C6.684,15.612,6,14.57,6,13V4.1C6,4.045,6.045,4,6.1,4h2.801c0.055,0,0.1,0.044,0.1,0.099l0.076,8.765c0,0.841,0.828,1.746,2.407,1.761C13.188,14.641,14,13.841,14,13V4.1C14,4.045,14.045,4,14.1,4H16.9z"/><path d="M16.9,21H6.1C6.045,21,6,20.955,6,20.9v-1.8C6,19.045,6.045,19,6.1,19h10.8c0.055,0,0.1,0.045,0.1,0.1v1.8C17,20.955,16.955,21,16.9,21z"/></svg>