<svg xmlns="http://www.w3.org/2000/svg" viewBox="0 0 24 24"><path d="M11.424,9.665c0,0.597,0.003,1.168,0,1.765c0,0.055-0.045,0.099-0.1,0.099H3.1c-0.055,0-0.1,0.045-0.1,0.1v7.27C3,18.955,3.045,19,3.1,19h11.006c0.055,0,0.1-0.045,0.1-0.1v-7.124c0-0.288-0.108-0.233-0.353-0.239c-0.023-0.001-0.386-0.009-0.503-0.005c-0.054,0.002-0.093-0.064-0.094-0.144c0-0.079,0.014-1.729,0.014-1.729c0-1.153,0.624-2.971,2.388-3.071c2.094-0.118,3.188,1.071,3.188,2.647l0.013,1.351l1.868,0.01c0,0,0.011-1.011,0.011-1.011c0-2.549-1.415-4.057-3.432-4.596C16.308,4.722,14.176,4.6,12.8,5.871C12.333,6.302,11.424,7.106,11.424,9.665z"/></svg>