<svg xmlns="http://www.w3.org/2000/svg" viewBox="0 0 24 24"><path d="M19,12.1v6.8c0,0.055-0.045,0.1-0.1,0.1H5.1C5.045,19,5,18.955,5,18.9v-6.8C5,12.045,4.955,12,4.9,12H3.1C3.045,12,3,12.045,3,12.1v8.8C3,20.955,3.045,21,3.1,21h17.8c0.055,0,0.1-0.045,0.1-0.1v-8.8c0-0.055-0.045-0.1-0.1-0.1h-1.8C19.045,12,19,12.045,19,12.1z M11.1,16h1.8c0.055,0,0.1-0.045,0.1-0.1V7.1C13,7.045,13.045,7,13.1,7h2.659c0.089,0,0.134-0.108,0.071-0.171l-3.759-3.759c-0.039-0.039-0.102-0.039-0.141,0L8.171,6.829C8.108,6.892,8.152,7,8.241,7H10.9C10.955,7,11,7.045,11,7.1v8.8C11,15.955,11.045,16,11.1,16z"/></svg>