<svg xmlns="http://www.w3.org/2000/svg" viewBox="0 0 24 24"><circle cx="8.66" cy="7.1" r="4"/><path d="M11.76,12.84a3.48,3.48,0,0,0-1.26-.23H6.75A3.76,3.76,0,0,0,3,16.21H3v.13H3l0,2.7a.11.11,0,0,0,.1.1h7a4.16,4.16,0,0,1-.83-2.49A4.21,4.21,0,0,1,11.76,12.84Z"/><path d="M16.53,18.6s0,0,0-.06a3.38,3.38,0,0,0,.53-1.83,3.55,3.55,0,1,0-3.55,3.47,3.6,3.6,0,0,0,2.27-.8,0,0,0,0,1,.06,0L18.32,22a0,0,0,0,0,.07,0l.64-.67a.06.06,0,0,0,0-.08Zm-3,.71a2.6,2.6,0,1,1,2.67-2.6A2.63,2.63,0,0,1,13.51,19.31Z"/></svg>