<svg xmlns="http://www.w3.org/2000/svg" viewBox="0 0 24 24"><path d="M12,7c-4.688,0-8.277,4.395-8.707,4.944c-0.028,0.036-0.028,0.076,0,0.112C3.723,12.605,7.312,17,12,17c4.681,0,8.486-4.383,8.952-4.942c0.031-0.037,0.031-0.08,0-0.117C20.486,11.383,16.681,7,12,7z M14.942,14.915c-0.007,0.01-0.017,0.019-0.026,0.026c-4.273,3.235-9.092-1.584-5.857-5.857c0.007-0.01,0.017-0.019,0.026-0.026C13.358,5.824,18.176,10.642,14.942,14.915z M12,9c-1.657,0-3,1.343-3,3s1.343,3,3,3s3-1.343,3-3S13.657,9,12,9z"/></svg>