<svg xmlns="http://www.w3.org/2000/svg" viewBox="0 0 24 24"><path d="M6.6,11.5h6.8c0.055,0,0.1-0.045,0.1-0.1V9.6c0-0.055-0.045-0.1-0.1-0.1H6.6c-0.055,0-0.1,0.045-0.1,0.1v1.8C6.5,11.455,6.545,11.5,6.6,11.5z M15.955,14.041c-0.033-0.033-0.037-0.083-0.011-0.122C16.61,12.925,17,11.755,17,10.5C17,6.916,13.859,4,10,4s-7,2.916-7,6.5S6.141,17,10,17c1.696,0,3.251-0.566,4.464-1.502c0.039-0.03,0.093-0.027,0.127,0.008l4.881,4.881c0.039,0.039,0.102,0.039,0.141,0l1.273-1.273c0.039-0.039,0.039-0.102,0-0.141L15.955,14.041z M10,15.375c-2.895,0-5.25-2.187-5.25-4.875S7.105,5.625,10,5.625s5.25,2.187,5.25,4.875S12.895,15.375,10,15.375z"/></svg>